<svg class="main-svg" xmlns="http://www.w3.org/2000/svg" xmlns:xlink="http://www.w3.org/1999/xlink" width="2200" height="1000" style="" viewBox="0 0 1100 500"><rect x="0" y="0" width="1100" height="500" style="fill: rgb(255, 255, 255); fill-opacity: 1;"/><defs id="defs-bd4d00"><g class="clips"><clipPath id="clipbd4d00xyplot" class="plotclip"><rect width="1012" height="385"/></clipPath><clipPath class="axesclip" id="clipbd4d00x"><rect x="63" y="0" width="1012" height="500"/></clipPath><clipPath class="axesclip" id="clipbd4d00y"><rect x="0" y="50" width="1100" height="385"/></clipPath><clipPath class="axesclip" id="clipbd4d00xy"><rect x="63" y="50" width="1012" height="385"/></clipPath></g><g class="gradients"/><g class="patterns"/></defs><g class="bglayer"/><g class="layer-below"><g class="imagelayer"/><g class="shapelayer"/></g><g class="cartesianlayer"><g class="subplot xy"><g class="layer-subplot"><g class="shapelayer"/><g class="imagelayer"/></g><g class="minor-gridlayer"><g class="x"/><g class="y"/></g><g class="gridlayer"><g class="x"><path class="xgrid crisp" transform="translate(265.4,0)" d="M0,50v385" style="stroke: rgb(0, 0, 0); stroke-opacity: 0.05; stroke-width: 1px;"/><path class="xgrid crisp" transform="translate(467.8,0)" d="M0,50v385" style="stroke: rgb(0, 0, 0); stroke-opacity: 0.05; stroke-width: 1px;"/><path class="xgrid crisp" transform="translate(670.2,0)" d="M0,50v385" style="stroke: rgb(0, 0, 0); stroke-opacity: 0.05; stroke-width: 1px;"/><path class="xgrid crisp" transform="translate(872.6,0)" d="M0,50v385" style="stroke: rgb(0, 0, 0); stroke-opacity: 0.05; stroke-width: 1px;"/></g><g class="y"><path class="ygrid crisp" transform="translate(0,379.44)" d="M63,0h1012" style="stroke: rgb(0, 0, 0); stroke-opacity: 0.05; stroke-width: 1px;"/><path class="ygrid crisp" transform="translate(0,323.88)" d="M63,0h1012" style="stroke: rgb(0, 0, 0); stroke-opacity: 0.05; stroke-width: 1px;"/><path class="ygrid crisp" transform="translate(0,268.31)" d="M63,0h1012" style="stroke: rgb(0, 0, 0); stroke-opacity: 0.05; stroke-width: 1px;"/><path class="ygrid crisp" transform="translate(0,212.75)" d="M63,0h1012" style="stroke: rgb(0, 0, 0); stroke-opacity: 0.05; stroke-width: 1px;"/><path class="ygrid crisp" transform="translate(0,157.19)" d="M63,0h1012" style="stroke: rgb(0, 0, 0); stroke-opacity: 0.05; stroke-width: 1px;"/><path class="ygrid crisp" transform="translate(0,101.63)" d="M63,0h1012" style="stroke: rgb(0, 0, 0); stroke-opacity: 0.05; stroke-width: 1px;"/></g></g><g class="zerolinelayer"><path class="xzl zl crisp" transform="translate(63,0)" d="M0,50v385" style="stroke: rgb(0, 0, 0); stroke-opacity: 0.05; stroke-width: 2px;"/><path class="yzl zl crisp" transform="translate(0,435)" d="M63,0h1012" style="stroke: rgb(0, 0, 0); stroke-opacity: 0.05; stroke-width: 2px;"/></g><g class="layer-between"><g class="shapelayer"/><g class="imagelayer"/></g><path class="xlines-below"/><path class="ylines-below"/><g class="overlines-below"/><g class="xaxislayer-below"/><g class="yaxislayer-below"/><g class="overaxes-below"/><g class="overplot"><g class="xy" transform="translate(63,50)" clip-path="url(#clipbd4d00xyplot)"><g class="scatterlayer mlayer"><g class="trace scatter trace05fdba" style="stroke-miterlimit: 2; opacity: 1;"><g class="fills"/><g class="errorbars"/><g class="lines"><path class="js-line" d="M0,19.25L20.24,385L30.36,385L425.04,384.41L435.16,384.02L455.4,381.48L465.52,377.96L475.64,374.04L485.76,362.69L495.88,362.59L506,328.93L516.12,323.85L526.24,331.18L536.36,309.95L546.48,298.9L556.6,326.98L566.72,349.09L576.84,371.11L586.96,369.15L597.08,369.15L607.2,378.05L627.44,382.65L637.56,383.04L647.68,384.12L657.8,384.22L667.92,384.8L678.04,384.61L718.52,385L728.64,384.71L1012,385" style="vector-effect: none; fill: none; stroke: rgb(217, 83, 79); stroke-opacity: 1; stroke-width: 2px; opacity: 1;"/></g><g class="points"/><g class="text"/></g><g class="trace scatter trace133a31" style="stroke-miterlimit: 2; opacity: 1;"><g class="fills"/><g class="errorbars"/><g class="lines"><path class="js-line" d="M0,19.42L20.24,385L30.36,385L414.92,384.6L425.04,384.01L435.16,382.42L445.28,378.25L455.4,381.63L465.52,378.65L475.64,377.46L485.76,363.96L495.88,334.39L506,351.56L516.12,348.38L526.24,333.79L536.36,316.53L546.48,278.32L556.6,310.97L566.72,353.84L576.84,367.44L586.96,374.48L597.08,371.11L607.2,377.56L617.32,381.63L627.44,381.73L657.8,384.6L667.92,384.8L1012,385" style="vector-effect: none; fill: none; stroke: rgb(217, 83, 79); stroke-opacity: 1; stroke-width: 2px; opacity: 1;"/></g><g class="points"/><g class="text"/></g><g class="trace scatter trace86ca71" style="stroke-miterlimit: 2; opacity: 1;"><g class="fills"/><g class="errorbars"/><g class="lines"><path class="js-line" d="M0,376.63L20.24,385L30.36,385L394.68,384.44L404.8,383.33L414.92,382.91L425.04,380.12L435.16,378.45L445.28,378.17L465.52,357.39L475.64,350.14L485.76,347.77L495.88,330.48L506,286.42L516.12,268.86L526.24,234.42L536.36,231.35L546.48,289.21L556.6,310.96L566.72,336.76L576.84,347.91L586.96,356L597.08,359.9L617.32,366.18L627.44,373.71L637.56,379.14L647.68,379.7L657.8,380.96L667.92,381.1L678.04,383.33L688.16,383.19L728.64,385L738.76,385L1012,385" style="vector-effect: none; fill: none; stroke: rgb(217, 83, 79); stroke-opacity: 1; stroke-width: 2px; opacity: 1;"/></g><g class="points"/><g class="text"/></g><g class="trace scatter tracebad08b" style="stroke-miterlimit: 2; opacity: 1;"><g class="fills"/><g class="errorbars"/><g class="lines"><path class="js-line" d="M0,376.64L20.24,385L30.36,385L364.32,384.72L374.44,384.16L384.56,384.16L394.68,385L414.92,381.1L425.04,379.7L435.16,376.5L445.28,376.78L465.52,355.73L475.64,356.98L485.76,338.58L495.88,337.47L506,324.22L516.12,269.72L526.24,259.96L536.36,286.03L546.48,286.59L556.6,263.03L566.72,273.9L576.84,332.45L586.96,352.66L597.08,365.21L617.32,370.36L627.44,375.94L637.56,380.26L647.68,381.38L657.8,380.68L667.92,382.91L708.4,385L718.52,384.72L738.76,384.58L748.88,385L1012,385" style="vector-effect: none; fill: none; stroke: rgb(217, 83, 79); stroke-opacity: 1; stroke-width: 2px; opacity: 1;"/></g><g class="points"/><g class="text"/></g><g class="trace scatter trace327542" style="stroke-miterlimit: 2; opacity: 1;"><g class="fills"/><g class="errorbars"/><g class="lines"><path class="js-line" d="M0,326.96L20.24,385L30.36,385L404.8,384.72L414.92,383.6L425.04,383.04L435.16,381.64L445.28,381.07L455.4,376.87L465.52,371.82L475.64,362.29L485.76,314.91L495.88,327.24L506,303.41L516.12,300.47L526.24,298.65L536.36,258.83L546.48,199.26L556.6,285.47L566.72,329.63L576.84,353.74L597.08,358.93L607.2,372.38L627.44,380.93L637.56,379.81L667.92,384.72L678.04,385L1012,385" style="vector-effect: none; fill: none; stroke: rgb(217, 83, 79); stroke-opacity: 1; stroke-width: 2px; opacity: 1;"/></g><g class="points"/><g class="text"/></g><g class="trace scatter traceb5ac3f" style="stroke-miterlimit: 2; opacity: 1;"><g class="fills"/><g class="errorbars"/><g class="lines"><path class="js-line" d="M0,327.96L20.24,385L30.36,385L414.92,385L425.04,382.2L435.16,379.69L445.28,379.97L455.4,376.61L465.52,370.18L475.64,368.22L485.76,344.73L495.88,317.05L506,322.5L516.12,311.74L526.24,279.3L536.36,271.61L546.48,179.19L556.6,245.75L566.72,343.34L576.84,353.12L586.96,358.44L597.08,357.74L607.2,369.06L617.32,377.87L627.44,379.55L647.68,384.44L657.8,383.6L698.28,385L708.4,385L1012,385" style="vector-effect: none; fill: none; stroke: rgb(217, 83, 79); stroke-opacity: 1; stroke-width: 2px; opacity: 1;"/></g><g class="points"/><g class="text"/></g><g class="trace scatter tracec2a9c3" style="stroke-miterlimit: 2; opacity: 1;"><g class="fills"/><g class="errorbars"/><g class="lines"><path class="js-line" d="M0,374.99L20.24,385L30.36,385L384.56,384.44L394.68,384.17L404.8,383.89L414.92,382.64L435.16,380.13L445.28,381.11L455.4,375.41L465.52,357.33L475.64,346.21L485.76,343.29L495.88,328.97L506,280.58L516.12,263.48L526.24,233.16L536.36,231.63L546.48,288.5L566.72,333.97L576.84,339.67L586.96,353.3L597.08,368.45L607.2,367.62L617.32,368.45L627.44,375.82L637.56,380.69L657.8,382.36L667.92,382.5L708.4,385L718.52,385L1012,385" style="vector-effect: none; fill: none; stroke: rgb(217, 83, 79); stroke-opacity: 1; stroke-width: 2px; opacity: 1;"/></g><g class="points"/><g class="text"/></g><g class="trace scatter trace030bba" style="stroke-miterlimit: 2; opacity: 1;"><g class="fills"/><g class="errorbars"/><g class="lines"><path class="js-line" d="M0,374.94L20.24,385L30.36,385L374.44,384.72L384.56,383.6L404.8,383.6L414.92,383.32L425.04,383.18L435.16,375.78L445.28,370.61L455.4,366.98L465.52,359.15L475.64,356.22L495.88,335.82L506,326.88L516.12,263.03L526.24,248.09L536.36,275.47L546.48,284.13L556.6,245.99L566.72,281.48L576.84,342.67L586.96,356.92L597.08,368.37L607.2,370.89L617.32,371.03L627.44,380.67L637.56,381.79L647.68,381.51L678.04,383.88L688.16,384.72L1012,385" style="vector-effect: none; fill: none; stroke: rgb(217, 83, 79); stroke-opacity: 1; stroke-width: 2px; opacity: 1;"/></g><g class="points"/><g class="text"/></g></g></g></g><path class="xlines-above crisp" d="M0,0" style="fill: none;"/><path class="ylines-above crisp" d="M0,0" style="fill: none;"/><g class="overlines-above"/><g class="xaxislayer-above"><g class="xtick"><text text-anchor="middle" x="0" y="451" transform="translate(63,0)" style="font-family: 'Lucida Grande', 'Open Sans', verdana, arial, sans-serif; font-size: 10px; fill: rgb(0, 0, 0); fill-opacity: 1; white-space: pre; opacity: 1;">0%</text></g><g class="xtick"><text text-anchor="middle" x="0" y="451" style="font-family: 'Lucida Grande', 'Open Sans', verdana, arial, sans-serif; font-size: 10px; fill: rgb(0, 0, 0); fill-opacity: 1; white-space: pre; opacity: 1;" transform="translate(265.4,0)">20%</text></g><g class="xtick"><text text-anchor="middle" x="0" y="451" style="font-family: 'Lucida Grande', 'Open Sans', verdana, arial, sans-serif; font-size: 10px; fill: rgb(0, 0, 0); fill-opacity: 1; white-space: pre; opacity: 1;" transform="translate(467.8,0)">40%</text></g><g class="xtick"><text text-anchor="middle" x="0" y="451" style="font-family: 'Lucida Grande', 'Open Sans', verdana, arial, sans-serif; font-size: 10px; fill: rgb(0, 0, 0); fill-opacity: 1; white-space: pre; opacity: 1;" transform="translate(670.2,0)">60%</text></g><g class="xtick"><text text-anchor="middle" x="0" y="451" style="font-family: 'Lucida Grande', 'Open Sans', verdana, arial, sans-serif; font-size: 10px; fill: rgb(0, 0, 0); fill-opacity: 1; white-space: pre; opacity: 1;" transform="translate(872.6,0)">80%</text></g><g class="xtick"><text text-anchor="middle" x="0" y="451" style="font-family: 'Lucida Grande', 'Open Sans', verdana, arial, sans-serif; font-size: 10px; fill: rgb(0, 0, 0); fill-opacity: 1; white-space: pre; opacity: 1;" transform="translate(1075,0)">100%</text></g></g><g class="yaxislayer-above"><g class="ytick"><text text-anchor="end" x="57" y="3.5" transform="translate(0,435)" style="font-family: 'Lucida Grande', 'Open Sans', verdana, arial, sans-serif; font-size: 10px; fill: rgb(0, 0, 0); fill-opacity: 1; white-space: pre; opacity: 1;">0%</text></g><g class="ytick"><text text-anchor="end" x="57" y="3.5" style="font-family: 'Lucida Grande', 'Open Sans', verdana, arial, sans-serif; font-size: 10px; fill: rgb(0, 0, 0); fill-opacity: 1; white-space: pre; opacity: 1;" transform="translate(0,379.44)">5%</text></g><g class="ytick"><text text-anchor="end" x="57" y="3.5" style="font-family: 'Lucida Grande', 'Open Sans', verdana, arial, sans-serif; font-size: 10px; fill: rgb(0, 0, 0); fill-opacity: 1; white-space: pre; opacity: 1;" transform="translate(0,323.88)">10%</text></g><g class="ytick"><text text-anchor="end" x="57" y="3.5" style="font-family: 'Lucida Grande', 'Open Sans', verdana, arial, sans-serif; font-size: 10px; fill: rgb(0, 0, 0); fill-opacity: 1; white-space: pre; opacity: 1;" transform="translate(0,268.31)">15%</text></g><g class="ytick"><text text-anchor="end" x="57" y="3.5" style="font-family: 'Lucida Grande', 'Open Sans', verdana, arial, sans-serif; font-size: 10px; fill: rgb(0, 0, 0); fill-opacity: 1; white-space: pre; opacity: 1;" transform="translate(0,212.75)">20%</text></g><g class="ytick"><text text-anchor="end" x="57" y="3.5" style="font-family: 'Lucida Grande', 'Open Sans', verdana, arial, sans-serif; font-size: 10px; fill: rgb(0, 0, 0); fill-opacity: 1; white-space: pre; opacity: 1;" transform="translate(0,157.19)">25%</text></g><g class="ytick"><text text-anchor="end" x="57" y="3.5" style="font-family: 'Lucida Grande', 'Open Sans', verdana, arial, sans-serif; font-size: 10px; fill: rgb(0, 0, 0); fill-opacity: 1; white-space: pre; opacity: 1;" transform="translate(0,101.63)">30%</text></g></g><g class="overaxes-above"/></g></g><g class="polarlayer"/><g class="smithlayer"/><g class="ternarylayer"/><g class="geolayer"/><g class="funnelarealayer"/><g class="pielayer"/><g class="iciclelayer"/><g class="treemaplayer"/><g class="sunburstlayer"/><g class="glimages"/><defs id="topdefs-bd4d00"><g class="clips"/></defs><g class="layer-above"><g class="imagelayer"/><g class="shapelayer"/></g><g class="infolayer"><g class="g-gtitle"><text class="gtitle" x="550" y="25" text-anchor="middle" dy="0em" style="opacity: 1; font-family: 'Lucida Grande', 'Open Sans', verdana, arial, sans-serif; font-size: 20px; fill: rgb(42, 63, 95); fill-opacity: 1; white-space: pre;"><tspan class="line" dy="0em" x="550" y="25">FastQC: Per Sequence GC Content</tspan><tspan class="line" dy="1.3em" x="550" y="25">​<tspan style="font-size:70%" dy="-0.6em">Percentages, 8 samples</tspan><tspan dy="0.42em">​</tspan></tspan></text></g><g class="g-xtitle"><text class="xtitle" x="569" y="472.3" text-anchor="middle" style="opacity: 0.3; font-family: 'Lucida Grande', 'Open Sans', verdana, arial, sans-serif; font-size: 14px; fill: rgb(0, 0, 0); fill-opacity: 1; white-space: pre;">% GC</text></g><g class="g-ytitle"><text class="ytitle" transform="rotate(-90,22.584375,242.5)" x="22.584375" y="242.5" text-anchor="middle" style="opacity: 0.3; font-family: 'Lucida Grande', 'Open Sans', verdana, arial, sans-serif; font-size: 14px; fill: rgb(0, 0, 0); fill-opacity: 1; white-space: pre;">Percentage</text></g></g></svg>