<svg class="main-svg" xmlns="http://www.w3.org/2000/svg" xmlns:xlink="http://www.w3.org/1999/xlink" width="2200" height="1000" style="" viewBox="0 0 1100 500"><rect x="0" y="0" width="1100" height="500" style="fill: rgb(255, 255, 255); fill-opacity: 1;"/><defs id="defs-6bcf18"><g class="clips"><clipPath id="clip6bcf18xyplot" class="plotclip"><rect width="1012" height="385"/></clipPath><clipPath class="axesclip" id="clip6bcf18x"><rect x="60" y="0" width="1012" height="500"/></clipPath><clipPath class="axesclip" id="clip6bcf18y"><rect x="0" y="50" width="1100" height="385"/></clipPath><clipPath class="axesclip" id="clip6bcf18xy"><rect x="60" y="50" width="1012" height="385"/></clipPath></g><g class="gradients"/><g class="patterns"/></defs><g class="bglayer"/><g class="layer-below"><g class="imagelayer"/><g class="shapelayer"><g class="shape-group" data-index="0" clip-path="url(#clip6bcf18y)"><path data-index="0" fill-rule="evenodd" d="M60,167.29000000000002H1072V-521.11H60Z" style="opacity: 1; stroke: rgb(0, 0, 0); stroke-opacity: 0; fill: rgb(195, 230, 195); fill-opacity: 1; stroke-width: 0px;"/></g><g class="shape-group" data-index="1" clip-path="url(#clip6bcf18y)"><path data-index="1" fill-rule="evenodd" d="M60,243.78H1072V167.29000000000002H60Z" style="opacity: 1; stroke: rgb(0, 0, 0); stroke-opacity: 0; fill: rgb(230, 220, 195); fill-opacity: 1; stroke-width: 0px;"/></g><g class="shape-group" data-index="2" clip-path="url(#clip6bcf18y)"><path data-index="2" fill-rule="evenodd" d="M60,435H1072V243.78H60Z" style="opacity: 1; stroke: rgb(0, 0, 0); stroke-opacity: 0; fill: rgb(230, 195, 195); fill-opacity: 1; stroke-width: 0px;"/></g><g class="shape-group" data-index="3" clip-path="url(#clip6bcf18y)"><path data-index="3" fill-rule="evenodd" d="M60,167.29000000000002H1072V-521.11H60Z" style="opacity: 1; stroke: rgb(0, 0, 0); stroke-opacity: 0; fill: rgb(195, 230, 195); fill-opacity: 1; stroke-width: 0px;"/></g><g class="shape-group" data-index="4" clip-path="url(#clip6bcf18y)"><path data-index="4" fill-rule="evenodd" d="M60,243.78H1072V167.29000000000002H60Z" style="opacity: 1; stroke: rgb(0, 0, 0); stroke-opacity: 0; fill: rgb(230, 220, 195); fill-opacity: 1; stroke-width: 0px;"/></g><g class="shape-group" data-index="5" clip-path="url(#clip6bcf18y)"><path data-index="5" fill-rule="evenodd" d="M60,435H1072V243.78H60Z" style="opacity: 1; stroke: rgb(0, 0, 0); stroke-opacity: 0; fill: rgb(230, 195, 195); fill-opacity: 1; stroke-width: 0px;"/></g></g></g><g class="cartesianlayer"><g class="subplot xy"><g class="layer-subplot"><g class="shapelayer"/><g class="imagelayer"/></g><g class="minor-gridlayer"><g class="x"/><g class="y"/></g><g class="gridlayer"><g class="x"><path class="xgrid crisp" transform="translate(262.4,0)" d="M0,50v385" style="stroke: rgb(0, 0, 0); stroke-opacity: 0.05; stroke-width: 1px;"/><path class="xgrid crisp" transform="translate(464.8,0)" d="M0,50v385" style="stroke: rgb(0, 0, 0); stroke-opacity: 0.05; stroke-width: 1px;"/><path class="xgrid crisp" transform="translate(667.2,0)" d="M0,50v385" style="stroke: rgb(0, 0, 0); stroke-opacity: 0.05; stroke-width: 1px;"/><path class="xgrid crisp" transform="translate(869.6,0)" d="M0,50v385" style="stroke: rgb(0, 0, 0); stroke-opacity: 0.05; stroke-width: 1px;"/></g><g class="y"><path class="ygrid crisp" transform="translate(0,387.19)" d="M60,0h1012" style="stroke: rgb(0, 0, 0); stroke-opacity: 0.05; stroke-width: 1px;"/><path class="ygrid crisp" transform="translate(0,339.39)" d="M60,0h1012" style="stroke: rgb(0, 0, 0); stroke-opacity: 0.05; stroke-width: 1px;"/><path class="ygrid crisp" transform="translate(0,291.58000000000004)" d="M60,0h1012" style="stroke: rgb(0, 0, 0); stroke-opacity: 0.05; stroke-width: 1px;"/><path class="ygrid crisp" transform="translate(0,243.78)" d="M60,0h1012" style="stroke: rgb(0, 0, 0); stroke-opacity: 0.05; stroke-width: 1px;"/><path class="ygrid crisp" transform="translate(0,195.97)" d="M60,0h1012" style="stroke: rgb(0, 0, 0); stroke-opacity: 0.05; stroke-width: 1px;"/><path class="ygrid crisp" transform="translate(0,148.17000000000002)" d="M60,0h1012" style="stroke: rgb(0, 0, 0); stroke-opacity: 0.05; stroke-width: 1px;"/><path class="ygrid crisp" transform="translate(0,100.36)" d="M60,0h1012" style="stroke: rgb(0, 0, 0); stroke-opacity: 0.05; stroke-width: 1px;"/><path class="ygrid crisp" transform="translate(0,52.56)" d="M60,0h1012" style="stroke: rgb(0, 0, 0); stroke-opacity: 0.05; stroke-width: 1px;"/></g></g><g class="zerolinelayer"><path class="xzl zl crisp" transform="translate(60,0)" d="M0,50v385" style="stroke: rgb(0, 0, 0); stroke-opacity: 0.05; stroke-width: 2px;"/><path class="yzl zl crisp" transform="translate(0,435)" d="M60,0h1012" style="stroke: rgb(0, 0, 0); stroke-opacity: 0.05; stroke-width: 2px;"/></g><g class="layer-between"><g class="shapelayer"/><g class="imagelayer"/></g><path class="xlines-below"/><path class="ylines-below"/><g class="overlines-below"/><g class="xaxislayer-below"/><g class="yaxislayer-below"/><g class="overaxes-below"/><g class="overplot"><g class="xy" transform="translate(60,50)" clip-path="url(#clip6bcf18xyplot)"><g class="scatterlayer mlayer"><g class="trace scatter trace540153" style="stroke-miterlimit: 2; opacity: 1;"><g class="fills"/><g class="errorbars"/><g class="lines"><path class="js-line" d="M4.05,154.57L8.1,150.54L12.14,147.68L16.19,146.51L20.24,144.07L24.29,116.9L28.34,116.9L32.38,120.55L36.43,122.61L40.48,120.45L60.72,111.06L80.96,114.18L101.2,118.45L121.44,117.15L141.68,49.1L161.92,33.66L182.16,32.4L202.4,20.03L222.64,27.99L242.88,29.42L263.12,38.91L283.36,31.17L303.6,52.82L323.84,34.56L344.08,46.94L364.32,37.45L384.56,32.83L404.8,46.84L425.04,33.27L445.28,46.74L465.52,48.31L485.76,52.71L506,53.21L546.48,52.97L566.72,49.93L586.96,61.38L607.2,51.12L627.44,68.22L647.68,52.82L667.92,65.66L688.16,59.84L708.4,64.97L728.64,54.6L748.88,65.32L769.12,68.91L789.36,74.91L809.6,71.16L829.84,71.65L850.08,68.28L890.56,85.96L910.8,70.14L931.04,96.33L951.28,78.24L971.52,80.56L991.76,87.7L1012,211.35" style="vector-effect: none; fill: none; stroke: rgb(217, 83, 79); stroke-opacity: 1; stroke-width: 2px; opacity: 1;"/></g><g class="points"/><g class="text"/></g><g class="trace scatter trace992bdb" style="stroke-miterlimit: 2; opacity: 1;"><g class="fills"/><g class="errorbars"/><g class="lines"><path class="js-line" d="M4.05,175.65L8.1,166.88L12.14,163.73L16.19,150.09L20.24,150.08L24.29,123.78L28.34,125.27L32.38,145.34L36.43,144.91L40.48,136.14L60.72,115.94L80.96,113.93L101.2,109.13L121.44,112.76L141.68,56.32L161.92,32.4L182.16,44.95L202.4,34.13L222.64,42.91L242.88,55.47L263.12,41.68L283.36,59.19L303.6,31.54L323.84,40.6L344.08,46.42L364.32,36.16L384.56,46.41L404.8,41.8L425.04,42.17L445.28,33.94L465.52,38.84L485.76,35.82L506,60.95L526.24,35.92L546.48,59.31L566.72,35.28L586.96,62.16L607.2,51.07L627.44,61.47L647.68,65.95L667.92,62.1L688.16,66.66L708.4,63.17L728.64,70.56L748.88,65.59L769.12,75.43L789.36,67.25L809.6,63.22L829.84,88.18L850.08,74.9L870.32,91.71L890.56,84.13L910.8,102.19L931.04,88.44L951.28,81.47L971.52,116.66L991.76,91.46L1012,191.92" style="vector-effect: none; fill: none; stroke: rgb(217, 83, 79); stroke-opacity: 1; stroke-width: 2px; opacity: 1;"/></g><g class="points"/><g class="text"/></g><g class="trace scatter trace296ce4" style="stroke-miterlimit: 2; opacity: 1;"><g class="fills"/><g class="errorbars"/><g class="lines"><path class="js-line" d="M4.05,76.31L8.1,74.12L12.14,70.59L16.19,69.89L20.24,67.77L24.29,35.62L28.34,35.28L32.38,45.93L36.43,38.88L40.48,39.26L60.72,26.25L101.2,32.29L121.44,25.78L141.68,28.36L161.92,28.02L182.16,25.95L202.4,18.33L222.64,24.04L242.88,22.68L263.12,30.22L283.36,27.34L303.6,35.51L323.84,24.7L344.08,30.55L364.32,21.25L384.56,25.3L404.8,31.93L425.04,22.96L445.28,35.23L465.52,34.6L485.76,40.79L506,34.49L526.24,36.49L546.48,37.16L566.72,35.11L586.96,43.96L607.2,43.29L627.44,48.21L647.68,42.19L667.92,44.01L688.16,47.82L708.4,51.19L728.64,39.69L748.88,48.61L769.12,46.58L789.36,54.97L809.6,49.2L829.84,53.16L850.08,55.16L870.32,57.49L890.56,66.26L910.8,55.98L931.04,65.03L951.28,58.45L971.52,61.89L991.76,64.44L1012,191.6" style="vector-effect: none; fill: none; stroke: rgb(217, 83, 79); stroke-opacity: 1; stroke-width: 2px; opacity: 1;"/></g><g class="points"/><g class="text"/></g><g class="trace scatter trace2f7d2b" style="stroke-miterlimit: 2; opacity: 1;"><g class="fills"/><g class="errorbars"/><g class="lines"><path class="js-line" d="M4.05,82.6L8.1,73.06L12.14,77.07L16.19,71.84L20.24,74.16L24.29,35.91L28.34,34.38L32.38,49.32L36.43,51.54L40.48,47.76L60.72,25.98L80.96,28.34L101.2,25.76L121.44,23.74L141.68,26.81L161.92,23.3L182.16,30.09L202.4,23.8L222.64,30.7L242.88,33.85L263.12,28.66L283.36,33.33L303.6,26.6L344.08,30.61L364.32,27.46L384.56,31.05L404.8,32.28L425.04,28.52L445.28,23.85L465.52,26.63L485.76,27.91L506,37.49L526.24,25.18L546.48,37.22L566.72,27.92L586.96,37.92L607.2,35.64L627.44,34.45L647.68,38.43L667.92,37.79L688.16,40L708.4,42.57L728.64,48.25L748.88,42.58L769.12,49.87L789.36,50.04L809.6,46.75L829.84,57.1L850.08,49.83L870.32,56.92L890.56,54.85L910.8,64.04L931.04,62.04L951.28,53.51L971.52,60.2L991.76,59.19L1012,147.61" style="vector-effect: none; fill: none; stroke: rgb(92, 184, 92); stroke-opacity: 1; stroke-width: 2px; opacity: 1;"/></g><g class="points"/><g class="text"/></g><g class="trace scatter trace1054d3" style="stroke-miterlimit: 2; opacity: 1;"><g class="fills"/><g class="errorbars"/><g class="lines"><path class="js-line" d="M4.05,82.43L8.1,78.56L12.14,78.09L16.19,79.34L20.24,77.33L24.29,45.56L28.34,41.87L32.38,49.95L36.43,54.93L40.48,48.48L60.72,34.89L80.96,39.14L101.2,41.83L121.44,40.88L141.68,31.43L182.16,30.92L202.4,18.63L222.64,26.95L242.88,26.69L263.12,35.39L283.36,28.95L303.6,47.69L323.84,30.57L344.08,42.34L364.32,34.89L384.56,28.41L404.8,41.76L425.04,30.73L445.28,42.05L465.52,43.6L485.76,49.24L506,49.31L526.24,47.89L546.48,48.22L566.72,46.46L586.96,57.41L607.2,48.83L627.44,63.96L647.68,52.02L667.92,62.06L688.16,56.16L708.4,59.49L728.64,50.87L748.88,61.23L769.12,63.79L789.36,69.56L809.6,66.58L829.84,64.76L850.08,63.9L870.32,72.51L890.56,76.92L910.8,64.5L931.04,90.48L951.28,74.68L971.52,74.5L991.76,80.27L1012,186.27" style="vector-effect: none; fill: none; stroke: rgb(217, 83, 79); stroke-opacity: 1; stroke-width: 2px; opacity: 1;"/></g><g class="points"/><g class="text"/></g><g class="trace scatter tracef36a1f" style="stroke-miterlimit: 2; opacity: 1;"><g class="fills"/><g class="errorbars"/><g class="lines"><path class="js-line" d="M4.05,121.77L8.1,107.21L12.14,102.95L16.19,87.36L20.24,87.84L24.29,50.86L28.34,51.48L32.38,75.84L36.43,80.8L40.48,67.31L60.72,42.32L80.96,39.23L101.2,33.6L121.44,38.58L141.68,39.13L161.92,29.71L182.16,41L202.4,30.61L222.64,38.97L242.88,52.14L263.12,37.86L283.36,52.03L303.6,28.64L344.08,42.5L364.32,34.29L384.56,41.28L404.8,37.89L425.04,38.93L445.28,30.53L465.52,35.41L485.76,33.54L506,54.76L526.24,33.85L546.48,52.41L566.72,33.69L586.96,58.23L607.2,46.66L627.44,54.72L647.68,59.49L667.92,55.85L688.16,62.35L708.4,60.16L728.64,62.57L748.88,59.09L769.12,69.46L789.36,61.69L809.6,60.59L829.84,82.24L850.08,68.62L870.32,87.67L890.56,82.72L910.8,95.75L931.04,82.51L951.28,77.55L971.52,108.13L991.76,87.52L1012,185.17" style="vector-effect: none; fill: none; stroke: rgb(217, 83, 79); stroke-opacity: 1; stroke-width: 2px; opacity: 1;"/></g><g class="points"/><g class="text"/></g><g class="trace scatter tracebc611a" style="stroke-miterlimit: 2; opacity: 1;"><g class="fills"/><g class="errorbars"/><g class="lines"><path class="js-line" d="M4.05,69.49L8.1,68.14L12.14,68.51L16.19,69.41L20.24,66.18L24.29,37.58L28.34,35.37L32.38,47.4L36.43,39.85L40.48,39.83L60.72,26.58L80.96,29.17L101.2,32.7L121.44,26.76L141.68,28.91L161.92,28.59L182.16,25.47L202.4,18.63L222.64,23.86L242.88,23.79L263.12,31.28L283.36,26.96L303.6,37.86L323.84,24.21L344.08,30.92L364.32,21.21L384.56,26.05L404.8,33.66L425.04,23.95L445.28,36.18L465.52,35.32L485.76,41.01L506,35.72L526.24,36.5L546.48,38.07L566.72,34.75L586.96,44.19L607.2,43.12L627.44,47.01L647.68,41.72L667.92,43.7L688.16,46.15L708.4,50.28L728.64,40.01L748.88,48.69L769.12,48.44L789.36,54.61L809.6,49.28L829.84,55.27L850.08,56.01L870.32,58.53L890.56,67.14L910.8,57.41L931.04,65.41L951.28,59.41L991.76,64.88L1012,186.46" style="vector-effect: none; fill: none; stroke: rgb(217, 83, 79); stroke-opacity: 1; stroke-width: 2px; opacity: 1;"/></g><g class="points"/><g class="text"/></g><g class="trace scatter trace1349b3" style="stroke-miterlimit: 2; opacity: 1;"><g class="fills"/><g class="errorbars"/><g class="lines"><path class="js-line" d="M4.05,84.27L8.1,73.65L12.14,78.11L16.19,73.22L20.24,75.16L24.29,37.02L28.34,34.67L32.38,51.89L36.43,52.76L60.72,26.46L80.96,27.94L101.2,25.12L121.44,23.97L141.68,27.16L161.92,23.66L182.16,30.38L202.4,24.3L222.64,30.2L242.88,33.46L263.12,28.45L283.36,33.72L303.6,26.5L323.84,27.62L344.08,30.31L364.32,27.51L384.56,31.05L404.8,32.03L425.04,28.96L445.28,24.93L485.76,28.34L506,37.11L526.24,24.69L546.48,37.75L566.72,28.8L586.96,38.94L607.2,35.6L627.44,36.08L647.68,39.03L667.92,38.44L708.4,42.23L728.64,48.22L748.88,42.37L769.12,50.4L789.36,50.34L809.6,46.72L829.84,57.23L850.08,49.47L870.32,57.62L890.56,55.2L910.8,64.06L931.04,62.8L951.28,54.48L971.52,60.19L991.76,60.35L1012,151.73" style="vector-effect: none; fill: none; stroke: rgb(92, 184, 92); stroke-opacity: 1; stroke-width: 2px; opacity: 1;"/></g><g class="points"/><g class="text"/></g></g></g></g><path class="xlines-above crisp" d="M0,0" style="fill: none;"/><path class="ylines-above crisp" d="M0,0" style="fill: none;"/><g class="overlines-above"/><g class="xaxislayer-above"><g class="xtick"><text text-anchor="middle" x="0" y="451" transform="translate(60,0)" style="font-family: 'Lucida Grande', 'Open Sans', verdana, arial, sans-serif; font-size: 10px; fill: rgb(0, 0, 0); fill-opacity: 1; white-space: pre; opacity: 1;">0 bp</text></g><g class="xtick"><text text-anchor="middle" x="0" y="451" style="font-family: 'Lucida Grande', 'Open Sans', verdana, arial, sans-serif; font-size: 10px; fill: rgb(0, 0, 0); fill-opacity: 1; white-space: pre; opacity: 1;" transform="translate(262.4,0)">50 bp</text></g><g class="xtick"><text text-anchor="middle" x="0" y="451" style="font-family: 'Lucida Grande', 'Open Sans', verdana, arial, sans-serif; font-size: 10px; fill: rgb(0, 0, 0); fill-opacity: 1; white-space: pre; opacity: 1;" transform="translate(464.8,0)">100 bp</text></g><g class="xtick"><text text-anchor="middle" x="0" y="451" style="font-family: 'Lucida Grande', 'Open Sans', verdana, arial, sans-serif; font-size: 10px; fill: rgb(0, 0, 0); fill-opacity: 1; white-space: pre; opacity: 1;" transform="translate(667.2,0)">150 bp</text></g><g class="xtick"><text text-anchor="middle" x="0" y="451" style="font-family: 'Lucida Grande', 'Open Sans', verdana, arial, sans-serif; font-size: 10px; fill: rgb(0, 0, 0); fill-opacity: 1; white-space: pre; opacity: 1;" transform="translate(869.6,0)">200 bp</text></g><g class="xtick"><text text-anchor="middle" x="0" y="451" style="font-family: 'Lucida Grande', 'Open Sans', verdana, arial, sans-serif; font-size: 10px; fill: rgb(0, 0, 0); fill-opacity: 1; white-space: pre; opacity: 1;" transform="translate(1072,0)">250 bp</text></g></g><g class="yaxislayer-above"><g class="ytick"><text text-anchor="end" x="54" y="3.5" transform="translate(0,435)" style="font-family: 'Lucida Grande', 'Open Sans', verdana, arial, sans-serif; font-size: 10px; fill: rgb(0, 0, 0); fill-opacity: 1; white-space: pre; opacity: 1;">0</text></g><g class="ytick"><text text-anchor="end" x="54" y="3.5" style="font-family: 'Lucida Grande', 'Open Sans', verdana, arial, sans-serif; font-size: 10px; fill: rgb(0, 0, 0); fill-opacity: 1; white-space: pre; opacity: 1;" transform="translate(0,387.19)">5</text></g><g class="ytick"><text text-anchor="end" x="54" y="3.5" style="font-family: 'Lucida Grande', 'Open Sans', verdana, arial, sans-serif; font-size: 10px; fill: rgb(0, 0, 0); fill-opacity: 1; white-space: pre; opacity: 1;" transform="translate(0,339.39)">10</text></g><g class="ytick"><text text-anchor="end" x="54" y="3.5" style="font-family: 'Lucida Grande', 'Open Sans', verdana, arial, sans-serif; font-size: 10px; fill: rgb(0, 0, 0); fill-opacity: 1; white-space: pre; opacity: 1;" transform="translate(0,291.58000000000004)">15</text></g><g class="ytick"><text text-anchor="end" x="54" y="3.5" style="font-family: 'Lucida Grande', 'Open Sans', verdana, arial, sans-serif; font-size: 10px; fill: rgb(0, 0, 0); fill-opacity: 1; white-space: pre; opacity: 1;" transform="translate(0,243.78)">20</text></g><g class="ytick"><text text-anchor="end" x="54" y="3.5" style="font-family: 'Lucida Grande', 'Open Sans', verdana, arial, sans-serif; font-size: 10px; fill: rgb(0, 0, 0); fill-opacity: 1; white-space: pre; opacity: 1;" transform="translate(0,195.97)">25</text></g><g class="ytick"><text text-anchor="end" x="54" y="3.5" style="font-family: 'Lucida Grande', 'Open Sans', verdana, arial, sans-serif; font-size: 10px; fill: rgb(0, 0, 0); fill-opacity: 1; white-space: pre; opacity: 1;" transform="translate(0,148.17000000000002)">30</text></g><g class="ytick"><text text-anchor="end" x="54" y="3.5" style="font-family: 'Lucida Grande', 'Open Sans', verdana, arial, sans-serif; font-size: 10px; fill: rgb(0, 0, 0); fill-opacity: 1; white-space: pre; opacity: 1;" transform="translate(0,100.36)">35</text></g><g class="ytick"><text text-anchor="end" x="54" y="3.5" style="font-family: 'Lucida Grande', 'Open Sans', verdana, arial, sans-serif; font-size: 10px; fill: rgb(0, 0, 0); fill-opacity: 1; white-space: pre; opacity: 1;" transform="translate(0,52.56)">40</text></g></g><g class="overaxes-above"/></g></g><g class="polarlayer"/><g class="smithlayer"/><g class="ternarylayer"/><g class="geolayer"/><g class="funnelarealayer"/><g class="pielayer"/><g class="iciclelayer"/><g class="treemaplayer"/><g class="sunburstlayer"/><g class="glimages"/><defs id="topdefs-6bcf18"><g class="clips"/></defs><g class="layer-above"><g class="imagelayer"/><g class="shapelayer"/></g><g class="infolayer"><g class="g-gtitle"><text class="gtitle" x="550" y="25" text-anchor="middle" dy="0em" style="opacity: 1; font-family: 'Lucida Grande', 'Open Sans', verdana, arial, sans-serif; font-size: 20px; fill: rgb(42, 63, 95); fill-opacity: 1; white-space: pre;"><tspan class="line" dy="0em" x="550" y="25">FastQC: Mean Quality Scores</tspan><tspan class="line" dy="1.3em" x="550" y="25">​<tspan style="font-size:70%" dy="-0.6em">8 samples</tspan><tspan dy="0.42em">​</tspan></tspan></text></g><g class="g-xtitle"><text class="xtitle" x="566" y="472.3" text-anchor="middle" style="opacity: 0.3; font-family: 'Lucida Grande', 'Open Sans', verdana, arial, sans-serif; font-size: 14px; fill: rgb(0, 0, 0); fill-opacity: 1; white-space: pre;">Position (bp)</text></g><g class="g-ytitle"><text class="ytitle" transform="rotate(-90,28.475,242.5)" x="28.475" y="242.5" text-anchor="middle" style="opacity: 0.3; font-family: 'Lucida Grande', 'Open Sans', verdana, arial, sans-serif; font-size: 14px; fill: rgb(0, 0, 0); fill-opacity: 1; white-space: pre;">Phred Score</text></g></g></svg>