<svg class="main-svg" xmlns="http://www.w3.org/2000/svg" xmlns:xlink="http://www.w3.org/1999/xlink" width="2200" height="546" style="" viewBox="0 0 1100 273"><rect x="0" y="0" width="1100" height="273" style="fill: rgb(255, 255, 255); fill-opacity: 1;"/><defs id="defs-c218c2"><g class="clips"><clipPath id="clipc218c2xyplot" class="plotclip"><rect width="1012" height="42.230769230769226"/></clipPath><clipPath id="clipc218c2x2y2plot" class="plotclip"><rect width="1012" height="42.230769230769226"/></clipPath><clipPath id="clipc218c2x3y3plot" class="plotclip"><rect width="1012" height="42.230769230769226"/></clipPath><clipPath class="axesclip" id="clipc218c2x"><rect x="73" y="0" width="1012" height="273"/></clipPath><clipPath class="axesclip" id="clipc218c2y"><rect x="0" y="50.00000000000002" width="1100" height="42.230769230769226"/></clipPath><clipPath class="axesclip" id="clipc218c2xy"><rect x="73" y="50.00000000000002" width="1012" height="42.230769230769226"/></clipPath><clipPath class="axesclip" id="clipc218c2y2"><rect x="0" y="120.3846153846154" width="1100" height="42.230769230769226"/></clipPath><clipPath class="axesclip" id="clipc218c2xy2"><rect x="73" y="120.3846153846154" width="1012" height="42.230769230769226"/></clipPath><clipPath class="axesclip" id="clipc218c2y3"><rect x="0" y="190.76923076923077" width="1100" height="42.230769230769226"/></clipPath><clipPath class="axesclip" id="clipc218c2xy3"><rect x="73" y="190.76923076923077" width="1012" height="42.230769230769226"/></clipPath><clipPath class="axesclip" id="clipc218c2x2"><rect x="73" y="0" width="1012" height="273"/></clipPath><clipPath class="axesclip" id="clipc218c2x2y"><rect x="73" y="50.00000000000002" width="1012" height="42.230769230769226"/></clipPath><clipPath class="axesclip" id="clipc218c2x2y2"><rect x="73" y="120.3846153846154" width="1012" height="42.230769230769226"/></clipPath><clipPath class="axesclip" id="clipc218c2x2y3"><rect x="73" y="190.76923076923077" width="1012" height="42.230769230769226"/></clipPath><clipPath class="axesclip" id="clipc218c2x3"><rect x="73" y="0" width="1012" height="273"/></clipPath><clipPath class="axesclip" id="clipc218c2x3y"><rect x="73" y="50.00000000000002" width="1012" height="42.230769230769226"/></clipPath><clipPath class="axesclip" id="clipc218c2x3y2"><rect x="73" y="120.3846153846154" width="1012" height="42.230769230769226"/></clipPath><clipPath class="axesclip" id="clipc218c2x3y3"><rect x="73" y="190.76923076923077" width="1012" height="42.230769230769226"/></clipPath></g><g class="gradients"/><g class="patterns"/></defs><g class="bglayer"/><g class="layer-below"><g class="imagelayer"/><g class="shapelayer"/></g><g class="cartesianlayer"><g class="subplot xy"><g class="layer-subplot"><g class="shapelayer"/><g class="imagelayer"/></g><g class="minor-gridlayer"><g class="x"/><g class="y"/></g><g class="gridlayer"><g class="x"><path class="xgrid crisp" transform="translate(203.25,0)" d="M0,50.00000000000002v42.230769230769226" style="stroke: rgb(0, 0, 0); stroke-opacity: 0.1; stroke-width: 1px;"/><path class="xgrid crisp" transform="translate(328.5,0)" d="M0,50.00000000000002v42.230769230769226" style="stroke: rgb(0, 0, 0); stroke-opacity: 0.1; stroke-width: 1px;"/><path class="xgrid crisp" transform="translate(453.74,0)" d="M0,50.00000000000002v42.230769230769226" style="stroke: rgb(0, 0, 0); stroke-opacity: 0.1; stroke-width: 1px;"/><path class="xgrid crisp" transform="translate(578.99,0)" d="M0,50.00000000000002v42.230769230769226" style="stroke: rgb(0, 0, 0); stroke-opacity: 0.1; stroke-width: 1px;"/><path class="xgrid crisp" transform="translate(704.23,0)" d="M0,50.00000000000002v42.230769230769226" style="stroke: rgb(0, 0, 0); stroke-opacity: 0.1; stroke-width: 1px;"/><path class="xgrid crisp" transform="translate(829.48,0)" d="M0,50.00000000000002v42.230769230769226" style="stroke: rgb(0, 0, 0); stroke-opacity: 0.1; stroke-width: 1px;"/><path class="xgrid crisp" transform="translate(954.72,0)" d="M0,50.00000000000002v42.230769230769226" style="stroke: rgb(0, 0, 0); stroke-opacity: 0.1; stroke-width: 1px;"/><path class="xgrid crisp" transform="translate(1079.97,0)" d="M0,50.00000000000002v42.230769230769226" style="stroke: rgb(0, 0, 0); stroke-opacity: 0.1; stroke-width: 1px;"/></g><g class="y"><path class="ygrid crisp" transform="translate(0,71.12000000000002)" d="M73,0h1012" style="stroke: rgb(0, 0, 0); stroke-opacity: 0.1; stroke-width: 1px;"/></g></g><g class="zerolinelayer"><path class="xzl zl crisp" transform="translate(78.01,0)" d="M0,50.00000000000002v42.230769230769226" style="stroke: rgb(0, 0, 0); stroke-opacity: 0.1; stroke-width: 2px;"/></g><g class="layer-between"><g class="shapelayer"/><g class="imagelayer"/></g><path class="xlines-below"/><path class="ylines-below"/><g class="overlines-below"/><g class="xaxislayer-below"/><g class="yaxislayer-below"/><g class="overaxes-below"/><g class="overplot"><g class="xy" transform="translate(73,50.00000000000002)" clip-path="url(#clipc218c2xyplot)"><g class="violinlayer mlayer"><g class="trace violins" style="opacity: 0.5;"><path class="violin" d="M495.97,19.12Q497.11,18.07 497.64,17.43C498.23,16.72 498.77,15.89 499.31,15.04C499.89,14.13 500.42,13.11 500.98,12.15C501.54,11.19 502.06,10.15 502.65,9.28C503.18,8.49 503.7,7.63 504.32,7.13C504.83,6.72 505.43,6.33 505.99,6.33C506.55,6.33 507.15,6.72 507.66,7.13C508.28,7.63 508.8,8.49 509.33,9.28C509.92,10.15 510.44,11.19 511,12.15C511.56,13.11 512.09,14.13 512.67,15.04C513.21,15.89 513.75,16.72 514.34,17.43C514.87,18.07 515.42,18.66 516.01,19.12C516.54,19.54 517.11,19.88 517.68,20.14C518.22,20.39 518.79,20.55 519.35,20.69C519.9,20.82 520.46,20.89 521.02,20.95C521.58,21.01 522.13,21.03 522.69,21.06C523.25,21.08 523.8,21.09 524.36,21.1C524.92,21.11 525.47,21.11 526.03,21.11C526.59,21.11 527.14,21.11 527.7,21.11C528.26,21.11 528.81,21.12 529.37,21.12C529.93,21.12 530.48,21.12 531.04,21.12C531.6,21.12 532.15,21.12 532.71,21.12C533.27,21.12 533.82,21.12 534.38,21.12C534.94,21.12 535.49,21.12 536.05,21.12C536.61,21.12 537.16,21.12 537.72,21.12C538.28,21.12 538.83,21.12 539.39,21.12C539.95,21.12 540.5,21.12 541.06,21.12C541.62,21.12 542.17,21.12 542.73,21.12C543.29,21.12 543.84,21.12 544.4,21.12C544.96,21.12 545.51,21.12 546.07,21.12C546.63,21.12 547.18,21.12 547.74,21.12C548.3,21.12 548.85,21.12 549.41,21.12C549.97,21.12 550.52,21.12 551.08,21.12C551.64,21.12 552.19,21.12 552.75,21.12C553.31,21.12 553.86,21.12 554.42,21.12C554.98,21.12 555.53,21.12 556.09,21.12C556.65,21.12 557.2,21.12 557.76,21.12C558.32,21.12 558.87,21.12 559.43,21.12C559.99,21.12 560.54,21.12 561.1,21.12C561.65,21.12 562.21,21.12 562.76,21.12C563.32,21.12 563.87,21.12 564.43,21.12C564.99,21.12 565.54,21.12 566.1,21.12C566.66,21.12 567.21,21.12 567.77,21.12C568.33,21.12 568.88,21.12 569.44,21.12C570,21.12 570.55,21.12 571.11,21.12C571.67,21.12 572.22,21.12 572.78,21.12C573.34,21.12 573.89,21.12 574.45,21.12C575.01,21.12 575.56,21.12 576.12,21.12C576.68,21.12 577.23,21.12 577.79,21.12C578.35,21.12 578.9,21.12 579.46,21.12C580.02,21.12 580.57,21.12 581.13,21.12C581.69,21.12 582.24,21.12 582.8,21.12C583.36,21.12 583.91,21.12 584.47,21.12C585.03,21.12 585.58,21.12 586.14,21.12C586.7,21.12 587.25,21.12 587.81,21.12C588.37,21.12 588.92,21.12 589.48,21.12C590.04,21.12 590.59,21.12 591.15,21.12C591.71,21.12 592.26,21.12 592.82,21.12C593.38,21.12 593.93,21.12 594.49,21.12C595.05,21.12 595.6,21.12 596.16,21.12C596.72,21.12 597.27,21.12 597.83,21.12C598.39,21.12 598.94,21.12 599.5,21.12C600.06,21.12 600.61,21.12 601.17,21.12C601.73,21.12 602.28,21.12 602.84,21.12C603.4,21.12 603.95,21.12 604.51,21.12C605.07,21.12 605.62,21.12 606.18,21.12C606.74,21.12 607.29,21.12 607.85,21.12C608.41,21.12 608.96,21.12 609.52,21.12C610.08,21.12 610.63,21.12 611.19,21.12C611.75,21.12 612.3,21.12 612.86,21.12C613.42,21.12 613.97,21.12 614.53,21.12C615.09,21.12 615.64,21.12 616.2,21.12C616.76,21.12 617.31,21.12 617.87,21.12C618.43,21.12 618.98,21.12 619.54,21.12C620.1,21.12 620.65,21.12 621.21,21.12C621.77,21.12 622.32,21.12 622.88,21.12C623.44,21.12 623.99,21.12 624.55,21.12C625.11,21.12 625.66,21.12 626.22,21.12C626.78,21.12 627.33,21.12 627.89,21.12C628.45,21.12 629,21.12 629.56,21.12C630.12,21.12 630.67,21.12 631.23,21.12C631.79,21.12 632.34,21.12 632.9,21.12C633.46,21.12 634.01,21.12 634.57,21.12C635.13,21.12 635.68,21.12 636.24,21.12C636.8,21.12 637.35,21.12 637.91,21.12C638.47,21.12 639.02,21.12 639.58,21.12C640.14,21.12 640.69,21.12 641.25,21.12C641.81,21.12 642.36,21.12 642.92,21.12C643.48,21.12 644.03,21.12 644.59,21.12C645.15,21.12 645.7,21.12 646.26,21.12C646.82,21.12 647.37,21.12 647.93,21.12C648.49,21.12 649.04,21.12 649.6,21.12C650.16,21.12 650.71,21.12 651.27,21.12C651.83,21.12 652.38,21.12 652.94,21.12C653.5,21.12 654.05,21.12 654.61,21.12C655.17,21.12 655.72,21.12 656.28,21.12C656.84,21.12 657.39,21.12 657.95,21.12C658.51,21.12 659.06,21.12 659.62,21.12C660.18,21.12 660.73,21.12 661.29,21.12C661.85,21.12 662.4,21.12 662.96,21.12C663.52,21.12 664.07,21.12 664.63,21.12C665.19,21.12 665.74,21.12 666.3,21.12C666.86,21.12 667.41,21.12 667.97,21.12C668.53,21.12 669.08,21.12 669.64,21.12C670.2,21.12 670.75,21.12 671.31,21.12C671.87,21.12 672.42,21.12 672.98,21.12C673.54,21.12 674.09,21.12 674.65,21.12C675.21,21.12 675.76,21.12 676.32,21.12C676.88,21.12 677.43,21.12 677.99,21.12C678.55,21.12 679.1,21.12 679.66,21.12C680.22,21.12 680.77,21.12 681.33,21.12C681.89,21.12 682.44,21.12 683,21.12C683.56,21.12 684.11,21.12 684.67,21.12C685.23,21.12 685.78,21.12 686.34,21.12C686.9,21.12 687.45,21.12 688.01,21.12C688.57,21.12 689.12,21.12 689.68,21.12C690.24,21.12 690.79,21.12 691.35,21.12C691.91,21.12 692.46,21.12 693.02,21.12C693.58,21.12 694.13,21.12 694.69,21.12C695.25,21.12 695.8,21.12 696.36,21.12C696.92,21.12 697.47,21.12 698.03,21.12C698.59,21.12 699.14,21.12 699.7,21.12C700.26,21.12 700.81,21.12 701.37,21.12C701.93,21.12 702.48,21.12 703.04,21.12C703.6,21.12 704.15,21.12 704.71,21.12C705.27,21.12 705.82,21.12 706.38,21.12C706.94,21.12 707.49,21.12 708.05,21.12C708.61,21.12 709.16,21.12 709.72,21.12C710.28,21.12 710.83,21.12 711.39,21.12C711.95,21.12 712.5,21.12 713.06,21.12C713.62,21.12 714.17,21.12 714.73,21.12C715.29,21.12 715.84,21.12 716.4,21.12C716.96,21.12 717.51,21.12 718.07,21.12C718.63,21.12 719.18,21.12 719.74,21.12C720.3,21.12 720.85,21.12 721.41,21.12C721.97,21.12 722.52,21.12 723.08,21.12C723.64,21.12 724.19,21.12 724.75,21.12C725.31,21.12 725.86,21.12 726.42,21.12C726.98,21.12 727.53,21.12 728.09,21.12C728.65,21.12 729.2,21.12 729.76,21.12C730.32,21.12 730.87,21.12 731.43,21.12C731.99,21.12 732.54,21.12 733.1,21.12C733.66,21.12 734.21,21.12 734.77,21.12C735.33,21.12 735.88,21.12 736.44,21.12C737,21.12 737.55,21.12 738.11,21.12C738.67,21.12 739.22,21.12 739.78,21.12C740.34,21.12 740.89,21.12 741.45,21.12C742.01,21.12 742.56,21.12 743.12,21.12C743.68,21.12 744.23,21.12 744.79,21.12C745.35,21.12 745.9,21.12 746.46,21.12C747.02,21.12 747.57,21.12 748.13,21.12C748.69,21.12 749.24,21.12 749.8,21.12C750.36,21.12 750.91,21.12 751.47,21.12C752.03,21.12 752.58,21.12 753.14,21.12C753.7,21.12 754.25,21.12 754.81,21.12C755.37,21.12 755.92,21.12 756.48,21.12C757.04,21.12 757.59,21.12 758.15,21.12C758.71,21.12 759.26,21.12 759.82,21.12C760.38,21.12 760.93,21.12 761.49,21.12C762.05,21.12 762.6,21.12 763.16,21.12C763.72,21.12 764.27,21.12 764.83,21.12C765.39,21.12 765.94,21.12 766.5,21.12C767.06,21.12 767.61,21.12 768.17,21.12C768.73,21.12 769.28,21.12 769.84,21.12C770.4,21.12 770.95,21.12 771.51,21.12C772.07,21.12 772.62,21.12 773.18,21.12C773.74,21.12 774.29,21.12 774.85,21.12C775.41,21.12 775.96,21.12 776.52,21.12C777.08,21.12 777.63,21.12 778.19,21.12C778.75,21.12 779.3,21.12 779.86,21.12C780.42,21.12 780.97,21.12 781.53,21.12C782.09,21.12 782.64,21.12 783.2,21.12C783.76,21.12 784.31,21.12 784.87,21.12C785.42,21.12 785.98,21.12 786.53,21.12C787.09,21.12 787.64,21.12 788.2,21.12C788.76,21.12 789.31,21.12 789.87,21.12C790.43,21.12 790.98,21.12 791.54,21.12C792.1,21.12 792.65,21.12 793.21,21.12C793.77,21.12 794.32,21.12 794.88,21.12C795.44,21.12 795.99,21.12 796.55,21.12C797.11,21.12 797.66,21.12 798.22,21.12C798.78,21.12 799.33,21.12 799.89,21.12C800.45,21.12 801,21.12 801.56,21.12C802.12,21.12 802.67,21.12 803.23,21.12C803.79,21.12 804.34,21.12 804.9,21.12C805.46,21.12 806.01,21.12 806.57,21.12C807.13,21.12 807.68,21.12 808.24,21.12C808.8,21.12 809.35,21.12 809.91,21.12C810.47,21.12 811.02,21.12 811.58,21.12C812.14,21.12 812.69,21.12 813.25,21.12C813.81,21.12 814.36,21.12 814.92,21.12C815.48,21.12 816.03,21.12 816.59,21.12C817.15,21.12 817.7,21.12 818.26,21.12C818.82,21.12 819.37,21.12 819.93,21.12C820.49,21.12 821.04,21.12 821.6,21.12C822.16,21.12 822.71,21.12 823.27,21.12C823.83,21.12 824.38,21.12 824.94,21.12C825.5,21.12 826.05,21.12 826.61,21.12C827.17,21.12 827.72,21.12 828.28,21.12C828.84,21.12 829.39,21.12 829.95,21.12C830.51,21.12 831.06,21.12 831.62,21.12C832.18,21.12 832.73,21.12 833.29,21.12C833.85,21.12 834.4,21.12 834.96,21.12C835.52,21.12 836.07,21.12 836.63,21.12C837.19,21.12 837.74,21.12 838.3,21.12C838.86,21.12 839.41,21.12 839.97,21.12C840.53,21.12 841.08,21.12 841.64,21.12C842.2,21.12 842.75,21.12 843.31,21.12C843.87,21.12 844.42,21.12 844.98,21.12C845.54,21.12 846.09,21.12 846.65,21.12C847.21,21.12 847.76,21.12 848.32,21.12C848.88,21.12 849.43,21.12 849.99,21.12C850.55,21.12 851.1,21.12 851.66,21.12C852.22,21.12 852.77,21.12 853.33,21.12C853.89,21.12 854.44,21.12 855,21.12C855.56,21.12 856.11,21.12 856.67,21.12C857.23,21.12 857.78,21.12 858.34,21.12C858.9,21.12 859.45,21.12 860.01,21.12C860.57,21.12 861.12,21.12 861.68,21.12C862.24,21.12 862.79,21.12 863.35,21.12C863.91,21.12 864.46,21.12 865.02,21.12C865.58,21.12 866.13,21.12 866.69,21.12C867.25,21.12 867.8,21.12 868.36,21.12C868.92,21.12 869.47,21.12 870.03,21.12C870.59,21.12 871.14,21.12 871.7,21.12C872.26,21.12 872.81,21.12 873.37,21.12C873.93,21.12 874.48,21.12 875.04,21.12C875.6,21.12 876.15,21.12 876.71,21.12C877.27,21.12 877.82,21.12 878.38,21.12C878.94,21.12 879.49,21.12 880.05,21.12C880.61,21.12 881.16,21.12 881.72,21.12C882.28,21.12 882.83,21.12 883.39,21.12C883.95,21.12 884.5,21.12 885.06,21.12C885.62,21.12 886.17,21.12 886.73,21.12C887.29,21.12 887.84,21.12 888.4,21.12C888.96,21.12 889.51,21.12 890.07,21.12C890.63,21.12 891.18,21.12 891.74,21.12C892.3,21.12 892.85,21.12 893.41,21.12C893.97,21.12 894.52,21.12 895.08,21.12C895.64,21.12 896.19,21.12 896.75,21.12C897.31,21.12 897.86,21.12 898.42,21.12C898.98,21.12 899.53,21.12 900.09,21.12C900.65,21.12 901.2,21.12 901.76,21.12C902.32,21.12 902.87,21.12 903.43,21.12C903.99,21.12 904.54,21.12 905.1,21.12C905.66,21.12 906.21,21.12 906.77,21.12C907.33,21.12 907.88,21.12 908.44,21.12C909,21.12 909.55,21.12 910.11,21.12C910.67,21.12 911.22,21.12 911.78,21.12C912.34,21.12 912.89,21.12 913.45,21.12C914.01,21.12 914.56,21.12 915.12,21.12C915.68,21.12 916.23,21.12 916.79,21.12C917.35,21.12 917.9,21.12 918.46,21.12C919.02,21.12 919.57,21.12 920.13,21.12C920.69,21.12 921.24,21.12 921.8,21.12C922.36,21.12 922.91,21.12 923.47,21.12C924.03,21.12 924.58,21.12 925.14,21.12C925.7,21.12 926.25,21.12 926.81,21.12C927.37,21.12 927.92,21.12 928.48,21.12C929.04,21.12 929.59,21.12 930.15,21.12C930.71,21.12 931.26,21.12 931.82,21.12C932.38,21.12 932.93,21.12 933.49,21.12C934.05,21.12 934.6,21.12 935.16,21.12C935.72,21.12 936.27,21.12 936.83,21.12C937.39,21.12 937.94,21.12 938.5,21.12C939.06,21.12 939.61,21.12 940.17,21.12C940.73,21.12 941.28,21.12 941.84,21.12C942.4,21.12 942.95,21.12 943.51,21.12C944.07,21.12 944.62,21.12 945.18,21.12C945.74,21.12 946.29,21.12 946.85,21.12C947.41,21.12 947.96,21.12 948.52,21.12C949.08,21.12 949.63,21.12 950.19,21.12C950.75,21.12 951.3,21.12 951.86,21.12C952.42,21.12 952.97,21.12 953.53,21.12C954.09,21.12 954.64,21.12 955.2,21.12C955.76,21.12 956.31,21.12 956.87,21.12C957.43,21.12 957.98,21.12 958.54,21.12C959.1,21.12 959.65,21.12 960.21,21.12C960.77,21.12 961.32,21.12 961.88,21.12C962.44,21.12 962.99,21.12 963.55,21.12C964.11,21.12 964.66,21.12 965.22,21.12C965.78,21.12 966.33,21.12 966.89,21.12C967.45,21.12 968,21.12 968.56,21.12C969.12,21.12 969.67,21.12 970.23,21.12C970.79,21.12 971.34,21.12 971.9,21.12C972.46,21.12 973.01,21.12 973.57,21.12C974.13,21.12 974.68,21.12 975.24,21.12C975.8,21.12 976.35,21.12 976.91,21.12C977.47,21.12 978.02,21.12 978.58,21.12C979.14,21.12 979.69,21.12 980.25,21.12C980.81,21.12 981.36,21.12 981.92,21.12C982.48,21.12 983.03,21.12 983.59,21.12C984.15,21.12 984.7,21.12 985.26,21.12C985.82,21.12 986.37,21.12 986.93,21.12C987.49,21.12 988.04,21.11 988.6,21.11C989.16,21.11 989.71,21.11 990.27,21.11C990.83,21.11 991.38,21.11 991.94,21.11C992.5,21.11 993.05,21.1 993.61,21.09C994.17,21.08 994.72,21.07 995.28,21.06C995.84,21.05 996.39,21.03 996.95,21.01C997.51,20.99 998.06,20.95 998.62,20.92C999.18,20.88 999.73,20.85 1000.29,20.8C1000.85,20.75 1001.4,20.69 1001.96,20.64C1002.52,20.59 1003.07,20.53 1003.63,20.49C1004.19,20.45 1004.74,20.41 1005.3,20.38C1005.86,20.36 1006.41,20.34 1006.97,20.34C1007.53,20.34 1008.08,20.36 1008.64,20.38C1009.2,20.41 1009.75,20.45 1010.31,20.49C1010.86,20.53 1011.42,20.59 1011.97,20.64C1012.53,20.69 1013.08,20.75 1013.64,20.8C1014.2,20.85 1014.75,20.88 1015.31,20.92Q1015.87,20.95 1016.98,21.01L1016.98,21.22Q1015.87,21.27 1015.31,21.31C1014.75,21.35 1014.2,21.39 1013.64,21.44C1013.08,21.49 1012.53,21.54 1011.97,21.59C1011.42,21.64 1010.86,21.7 1010.31,21.74C1009.75,21.78 1009.2,21.82 1008.64,21.85C1008.08,21.87 1007.53,21.89 1006.97,21.89C1006.41,21.89 1005.86,21.87 1005.3,21.85C1004.74,21.82 1004.19,21.78 1003.63,21.74C1003.07,21.7 1002.52,21.64 1001.96,21.59C1001.4,21.54 1000.85,21.49 1000.29,21.44C999.73,21.39 999.18,21.35 998.62,21.31C998.06,21.27 997.51,21.24 996.95,21.22C996.39,21.2 995.84,21.18 995.28,21.17C994.72,21.16 994.17,21.15 993.61,21.14C993.05,21.13 992.5,21.12 991.94,21.12C991.38,21.12 990.83,21.12 990.27,21.12C989.71,21.12 989.16,21.12 988.6,21.12C988.04,21.12 987.49,21.12 986.93,21.12C986.37,21.12 985.82,21.12 985.26,21.12C984.7,21.12 984.15,21.12 983.59,21.12C983.03,21.12 982.48,21.12 981.92,21.12C981.36,21.12 980.81,21.12 980.25,21.12C979.69,21.12 979.14,21.12 978.58,21.12C978.02,21.12 977.47,21.12 976.91,21.12C976.35,21.12 975.8,21.12 975.24,21.12C974.68,21.12 974.13,21.12 973.57,21.12C973.01,21.12 972.46,21.12 971.9,21.12C971.34,21.12 970.79,21.12 970.23,21.12C969.67,21.12 969.12,21.12 968.56,21.12C968,21.12 967.45,21.12 966.89,21.12C966.33,21.12 965.78,21.12 965.22,21.12C964.66,21.12 964.11,21.12 963.55,21.12C962.99,21.12 962.44,21.12 961.88,21.12C961.32,21.12 960.77,21.12 960.21,21.12C959.65,21.12 959.1,21.12 958.54,21.12C957.98,21.12 957.43,21.12 956.87,21.12C956.31,21.12 955.76,21.12 955.2,21.12C954.64,21.12 954.09,21.12 953.53,21.12C952.97,21.12 952.42,21.12 951.86,21.12C951.3,21.12 950.75,21.12 950.19,21.12C949.63,21.12 949.08,21.12 948.52,21.12C947.96,21.12 947.41,21.12 946.85,21.12C946.29,21.12 945.74,21.12 945.18,21.12C944.62,21.12 944.07,21.12 943.51,21.12C942.95,21.12 942.4,21.12 941.84,21.12C941.28,21.12 940.73,21.12 940.17,21.12C939.61,21.12 939.06,21.12 938.5,21.12C937.94,21.12 937.39,21.12 936.83,21.12C936.27,21.12 935.72,21.12 935.16,21.12C934.6,21.12 934.05,21.12 933.49,21.12C932.93,21.12 932.38,21.12 931.82,21.12C931.26,21.12 930.71,21.12 930.15,21.12C929.59,21.12 929.04,21.12 928.48,21.12C927.92,21.12 927.37,21.12 926.81,21.12C926.25,21.12 925.7,21.12 925.14,21.12C924.58,21.12 924.03,21.12 923.47,21.12C922.91,21.12 922.36,21.12 921.8,21.12C921.24,21.12 920.69,21.12 920.13,21.12C919.57,21.12 919.02,21.12 918.46,21.12C917.9,21.12 917.35,21.12 916.79,21.12C916.23,21.12 915.68,21.12 915.12,21.12C914.56,21.12 914.01,21.12 913.45,21.12C912.89,21.12 912.34,21.12 911.78,21.12C911.22,21.12 910.67,21.12 910.11,21.12C909.55,21.12 909,21.12 908.44,21.12C907.88,21.12 907.33,21.12 906.77,21.12C906.21,21.12 905.66,21.12 905.1,21.12C904.54,21.12 903.99,21.12 903.43,21.12C902.87,21.12 902.32,21.12 901.76,21.12C901.2,21.12 900.65,21.12 900.09,21.12C899.53,21.12 898.98,21.12 898.42,21.12C897.86,21.12 897.31,21.12 896.75,21.12C896.19,21.12 895.64,21.12 895.08,21.12C894.52,21.12 893.97,21.12 893.41,21.12C892.85,21.12 892.3,21.12 891.74,21.12C891.18,21.12 890.63,21.12 890.07,21.12C889.51,21.12 888.96,21.12 888.4,21.12C887.84,21.12 887.29,21.12 886.73,21.12C886.17,21.12 885.62,21.12 885.06,21.12C884.5,21.12 883.95,21.12 883.39,21.12C882.83,21.12 882.28,21.12 881.72,21.12C881.16,21.12 880.61,21.12 880.05,21.12C879.49,21.12 878.94,21.12 878.38,21.12C877.82,21.12 877.27,21.12 876.71,21.12C876.15,21.12 875.6,21.12 875.04,21.12C874.48,21.12 873.93,21.12 873.37,21.12C872.81,21.12 872.26,21.12 871.7,21.12C871.14,21.12 870.59,21.12 870.03,21.12C869.47,21.12 868.92,21.12 868.36,21.12C867.8,21.12 867.25,21.12 866.69,21.12C866.13,21.12 865.58,21.12 865.02,21.12C864.46,21.12 863.91,21.12 863.35,21.12C862.79,21.12 862.24,21.12 861.68,21.12C861.12,21.12 860.57,21.12 860.01,21.12C859.45,21.12 858.9,21.12 858.34,21.12C857.78,21.12 857.23,21.12 856.67,21.12C856.11,21.12 855.56,21.12 855,21.12C854.44,21.12 853.89,21.12 853.33,21.12C852.77,21.12 852.22,21.12 851.66,21.12C851.1,21.12 850.55,21.12 849.99,21.12C849.43,21.12 848.88,21.12 848.32,21.12C847.76,21.12 847.21,21.12 846.65,21.12C846.09,21.12 845.54,21.12 844.98,21.12C844.42,21.12 843.87,21.12 843.31,21.12C842.75,21.12 842.2,21.12 841.64,21.12C841.08,21.12 840.53,21.12 839.97,21.12C839.41,21.12 838.86,21.12 838.3,21.12C837.74,21.12 837.19,21.12 836.63,21.12C836.07,21.12 835.52,21.12 834.96,21.12C834.4,21.12 833.85,21.12 833.29,21.12C832.73,21.12 832.18,21.12 831.62,21.12C831.06,21.12 830.51,21.12 829.95,21.12C829.39,21.12 828.84,21.12 828.28,21.12C827.72,21.12 827.17,21.12 826.61,21.12C826.05,21.12 825.5,21.12 824.94,21.12C824.38,21.12 823.83,21.12 823.27,21.12C822.71,21.12 822.16,21.12 821.6,21.12C821.04,21.12 820.49,21.12 819.93,21.12C819.37,21.12 818.82,21.12 818.26,21.12C817.7,21.12 817.15,21.12 816.59,21.12C816.03,21.12 815.48,21.12 814.92,21.12C814.36,21.12 813.81,21.12 813.25,21.12C812.69,21.12 812.14,21.12 811.58,21.12C811.02,21.12 810.47,21.12 809.91,21.12C809.35,21.12 808.8,21.12 808.24,21.12C807.68,21.12 807.13,21.12 806.57,21.12C806.01,21.12 805.46,21.12 804.9,21.12C804.34,21.12 803.79,21.12 803.23,21.12C802.67,21.12 802.12,21.12 801.56,21.12C801,21.12 800.45,21.12 799.89,21.12C799.33,21.12 798.78,21.12 798.22,21.12C797.66,21.12 797.11,21.12 796.55,21.12C795.99,21.12 795.44,21.12 794.88,21.12C794.32,21.12 793.77,21.12 793.21,21.12C792.65,21.12 792.1,21.12 791.54,21.12C790.98,21.12 790.43,21.12 789.87,21.12C789.31,21.12 788.76,21.12 788.2,21.12C787.64,21.12 787.09,21.12 786.53,21.12C785.98,21.12 785.42,21.12 784.87,21.12C784.31,21.12 783.76,21.12 783.2,21.12C782.64,21.12 782.09,21.12 781.53,21.12C780.97,21.12 780.42,21.12 779.86,21.12C779.3,21.12 778.75,21.12 778.19,21.12C777.63,21.12 777.08,21.12 776.52,21.12C775.96,21.12 775.41,21.12 774.85,21.12C774.29,21.12 773.74,21.12 773.18,21.12C772.62,21.12 772.07,21.12 771.51,21.12C770.95,21.12 770.4,21.12 769.84,21.12C769.28,21.12 768.73,21.12 768.17,21.12C767.61,21.12 767.06,21.12 766.5,21.12C765.94,21.12 765.39,21.12 764.83,21.12C764.27,21.12 763.72,21.12 763.16,21.12C762.6,21.12 762.05,21.12 761.49,21.12C760.93,21.12 760.38,21.12 759.82,21.12C759.26,21.12 758.71,21.12 758.15,21.12C757.59,21.12 757.04,21.12 756.48,21.12C755.92,21.12 755.37,21.12 754.81,21.12C754.25,21.12 753.7,21.12 753.14,21.12C752.58,21.12 752.03,21.12 751.47,21.12C750.91,21.12 750.36,21.12 749.8,21.12C749.24,21.12 748.69,21.12 748.13,21.12C747.57,21.12 747.02,21.12 746.46,21.12C745.9,21.12 745.35,21.12 744.79,21.12C744.23,21.12 743.68,21.12 743.12,21.12C742.56,21.12 742.01,21.12 741.45,21.12C740.89,21.12 740.34,21.12 739.78,21.12C739.22,21.12 738.67,21.12 738.11,21.12C737.55,21.12 737,21.12 736.44,21.12C735.88,21.12 735.33,21.12 734.77,21.12C734.21,21.12 733.66,21.12 733.1,21.12C732.54,21.12 731.99,21.12 731.43,21.12C730.87,21.12 730.32,21.12 729.76,21.12C729.2,21.12 728.65,21.12 728.09,21.12C727.53,21.12 726.98,21.12 726.42,21.12C725.86,21.12 725.31,21.12 724.75,21.12C724.19,21.12 723.64,21.12 723.08,21.12C722.52,21.12 721.97,21.12 721.41,21.12C720.85,21.12 720.3,21.12 719.74,21.12C719.18,21.12 718.63,21.12 718.07,21.12C717.51,21.12 716.96,21.12 716.4,21.12C715.84,21.12 715.29,21.12 714.73,21.12C714.17,21.12 713.62,21.12 713.06,21.12C712.5,21.12 711.95,21.12 711.39,21.12C710.83,21.12 710.28,21.12 709.72,21.12C709.16,21.12 708.61,21.12 708.05,21.12C707.49,21.12 706.94,21.12 706.38,21.12C705.82,21.12 705.27,21.12 704.71,21.12C704.15,21.12 703.6,21.12 703.04,21.12C702.48,21.12 701.93,21.12 701.37,21.12C700.81,21.12 700.26,21.12 699.7,21.12C699.14,21.12 698.59,21.12 698.03,21.12C697.47,21.12 696.92,21.12 696.36,21.12C695.8,21.12 695.25,21.12 694.69,21.12C694.13,21.12 693.58,21.12 693.02,21.12C692.46,21.12 691.91,21.12 691.35,21.12C690.79,21.12 690.24,21.12 689.68,21.12C689.12,21.12 688.57,21.12 688.01,21.12C687.45,21.12 686.9,21.12 686.34,21.12C685.78,21.12 685.23,21.12 684.67,21.12C684.11,21.12 683.56,21.12 683,21.12C682.44,21.12 681.89,21.12 681.33,21.12C680.77,21.12 680.22,21.12 679.66,21.12C679.1,21.12 678.55,21.12 677.99,21.12C677.43,21.12 676.88,21.12 676.32,21.12C675.76,21.12 675.21,21.12 674.65,21.12C674.09,21.12 673.54,21.12 672.98,21.12C672.42,21.12 671.87,21.12 671.31,21.12C670.75,21.12 670.2,21.12 669.64,21.12C669.08,21.12 668.53,21.12 667.97,21.12C667.41,21.12 666.86,21.12 666.3,21.12C665.74,21.12 665.19,21.12 664.63,21.12C664.07,21.12 663.52,21.12 662.96,21.12C662.4,21.12 661.85,21.12 661.29,21.12C660.73,21.12 660.18,21.12 659.62,21.12C659.06,21.12 658.51,21.12 657.95,21.12C657.39,21.12 656.84,21.12 656.28,21.12C655.72,21.12 655.17,21.12 654.61,21.12C654.05,21.12 653.5,21.12 652.94,21.12C652.38,21.12 651.83,21.12 651.27,21.12C650.71,21.12 650.16,21.12 649.6,21.12C649.04,21.12 648.49,21.12 647.93,21.12C647.37,21.12 646.82,21.12 646.26,21.12C645.7,21.12 645.15,21.12 644.59,21.12C644.03,21.12 643.48,21.12 642.92,21.12C642.36,21.12 641.81,21.12 641.25,21.12C640.69,21.12 640.14,21.12 639.58,21.12C639.02,21.12 638.47,21.12 637.91,21.12C637.35,21.12 636.8,21.12 636.24,21.12C635.68,21.12 635.13,21.12 634.57,21.12C634.01,21.12 633.46,21.12 632.9,21.12C632.34,21.12 631.79,21.12 631.23,21.12C630.67,21.12 630.12,21.12 629.56,21.12C629,21.12 628.45,21.12 627.89,21.12C627.33,21.12 626.78,21.12 626.22,21.12C625.66,21.12 625.11,21.12 624.55,21.12C623.99,21.12 623.44,21.12 622.88,21.12C622.32,21.12 621.77,21.12 621.21,21.12C620.65,21.12 620.1,21.12 619.54,21.12C618.98,21.12 618.43,21.12 617.87,21.12C617.31,21.12 616.76,21.12 616.2,21.12C615.64,21.12 615.09,21.12 614.53,21.12C613.97,21.12 613.42,21.12 612.86,21.12C612.3,21.12 611.75,21.12 611.19,21.12C610.63,21.12 610.08,21.12 609.52,21.12C608.96,21.12 608.41,21.12 607.85,21.12C607.29,21.12 606.74,21.12 606.18,21.12C605.62,21.12 605.07,21.12 604.51,21.12C603.95,21.12 603.4,21.12 602.84,21.12C602.28,21.12 601.73,21.12 601.17,21.12C600.61,21.12 600.06,21.12 599.5,21.12C598.94,21.12 598.39,21.12 597.83,21.12C597.27,21.12 596.72,21.12 596.16,21.12C595.6,21.12 595.05,21.12 594.49,21.12C593.93,21.12 593.38,21.12 592.82,21.12C592.26,21.12 591.71,21.12 591.15,21.12C590.59,21.12 590.04,21.12 589.48,21.12C588.92,21.12 588.37,21.12 587.81,21.12C587.25,21.12 586.7,21.12 586.14,21.12C585.58,21.12 585.03,21.12 584.47,21.12C583.91,21.12 583.36,21.12 582.8,21.12C582.24,21.12 581.69,21.12 581.13,21.12C580.57,21.12 580.02,21.12 579.46,21.12C578.9,21.12 578.35,21.12 577.79,21.12C577.23,21.12 576.68,21.12 576.12,21.12C575.56,21.12 575.01,21.12 574.45,21.12C573.89,21.12 573.34,21.12 572.78,21.12C572.22,21.12 571.67,21.12 571.11,21.12C570.55,21.12 570,21.12 569.44,21.12C568.88,21.12 568.33,21.12 567.77,21.12C567.21,21.12 566.66,21.12 566.1,21.12C565.54,21.12 564.99,21.12 564.43,21.12C563.87,21.12 563.32,21.12 562.76,21.12C562.21,21.12 561.65,21.12 561.1,21.12C560.54,21.12 559.99,21.12 559.43,21.12C558.87,21.12 558.32,21.12 557.76,21.12C557.2,21.12 556.65,21.12 556.09,21.12C555.53,21.12 554.98,21.12 554.42,21.12C553.86,21.12 553.31,21.12 552.75,21.12C552.19,21.12 551.64,21.12 551.08,21.12C550.52,21.12 549.97,21.12 549.41,21.12C548.85,21.12 548.3,21.12 547.74,21.12C547.18,21.12 546.63,21.12 546.07,21.12C545.51,21.12 544.96,21.12 544.4,21.12C543.84,21.12 543.29,21.12 542.73,21.12C542.17,21.12 541.62,21.12 541.06,21.12C540.5,21.12 539.95,21.12 539.39,21.12C538.83,21.12 538.28,21.12 537.72,21.12C537.16,21.12 536.61,21.12 536.05,21.12C535.49,21.12 534.94,21.12 534.38,21.12C533.82,21.12 533.27,21.12 532.71,21.12C532.15,21.12 531.6,21.12 531.04,21.12C530.48,21.12 529.93,21.12 529.37,21.12C528.81,21.12 528.26,21.12 527.7,21.12C527.14,21.12 526.59,21.12 526.03,21.12C525.47,21.12 524.92,21.12 524.36,21.13C523.8,21.14 523.25,21.15 522.69,21.17C522.13,21.2 521.58,21.22 521.02,21.28C520.46,21.34 519.9,21.41 519.35,21.54C518.79,21.68 518.22,21.84 517.68,22.09C517.11,22.36 516.54,22.7 516.01,23.12C515.42,23.58 514.87,24.17 514.34,24.8C513.75,25.5 513.21,26.34 512.67,27.19C512.09,28.1 511.56,29.12 511,30.08C510.44,31.04 509.92,32.08 509.33,32.95C508.8,33.74 508.28,34.6 507.66,35.1C507.15,35.51 506.55,35.9 505.99,35.9C505.43,35.9 504.83,35.51 504.32,35.1C503.7,34.6 503.18,33.74 502.65,32.95C502.06,32.08 501.54,31.04 500.98,30.08C500.42,29.12 499.89,28.1 499.31,27.19C498.77,26.34 498.23,25.5 497.64,24.8Q497.11,24.17 495.97,23.12Z" style="vector-effect: none; stroke-width: 2px; stroke: rgb(181, 181, 181); stroke-opacity: 1; fill: rgb(181, 181, 181); fill-opacity: 1;"/><path class="box" d="M505.99,24.81V17.42M505.99,24.81V17.42H505.99V24.81ZM505.99,21.12H505.99M505.99,21.12H505.99" style="vector-effect: non-scaling-stroke; stroke-width: 2px; stroke: rgb(181, 181, 181); stroke-opacity: 1; fill: rgb(181, 181, 181); fill-opacity: 1;"/><path class="mean" d="M531.04,24.81V17.42" style="fill: none; vector-effect: non-scaling-stroke; stroke-width: 2px; stroke-dasharray: 4px, 2px; stroke: rgb(181, 181, 181); stroke-opacity: 1;"/></g></g><g class="scatterlayer mlayer"><g class="trace scatter trace258510" style="stroke-miterlimit: 2; opacity: 1;"><g class="fills"/><g class="errorbars"/><g class="lines"/><g class="points"><path class="point" transform="translate(1006.97,21.12)" d="M2,0A2,2 0 1,1 0,-2A2,2 0 0,1 2,0Z" style="opacity: 1; stroke-width: 0px; fill: rgb(11, 121, 230); fill-opacity: 1;"/></g><g class="text"/></g><g class="trace scatter trace18669e" style="stroke-miterlimit: 2; opacity: 1;"><g class="fills"/><g class="errorbars"/><g class="lines"/><g class="points"><path class="point" transform="translate(505.99,21.12)" d="M2,0A2,2 0 1,1 0,-2A2,2 0 0,1 2,0Z" style="opacity: 1; stroke-width: 0px; fill: rgb(11, 121, 230); fill-opacity: 1;"/></g><g class="text"/></g><g class="trace scatter trace5217a6" style="stroke-miterlimit: 2; opacity: 1;"><g class="fills"/><g class="errorbars"/><g class="lines"/><g class="points"><path class="point" transform="translate(505.99,21.12)" d="M2,0A2,2 0 1,1 0,-2A2,2 0 0,1 2,0Z" style="opacity: 1; stroke-width: 0px; fill: rgb(11, 121, 230); fill-opacity: 1;"/></g><g class="text"/></g><g class="trace scatter traceaec178" style="stroke-miterlimit: 2; opacity: 1;"><g class="fills"/><g class="errorbars"/><g class="lines"/><g class="points"><path class="point" transform="translate(505.99,21.12)" d="M2,0A2,2 0 1,1 0,-2A2,2 0 0,1 2,0Z" style="opacity: 1; stroke-width: 0px; fill: rgb(11, 121, 230); fill-opacity: 1;"/></g><g class="text"/></g><g class="trace scatter traceaf0dc2" style="stroke-miterlimit: 2; opacity: 1;"><g class="fills"/><g class="errorbars"/><g class="lines"/><g class="points"><path class="point" transform="translate(505.99,21.12)" d="M2,0A2,2 0 1,1 0,-2A2,2 0 0,1 2,0Z" style="opacity: 1; stroke-width: 0px; fill: rgb(11, 121, 230); fill-opacity: 1;"/></g><g class="text"/></g><g class="trace scatter trace6c46cd" style="stroke-miterlimit: 2; opacity: 1;"><g class="fills"/><g class="errorbars"/><g class="lines"/><g class="points"><path class="point" transform="translate(505.99,21.12)" d="M2,0A2,2 0 1,1 0,-2A2,2 0 0,1 2,0Z" style="opacity: 1; stroke-width: 0px; fill: rgb(11, 121, 230); fill-opacity: 1;"/></g><g class="text"/></g><g class="trace scatter trace81d798" style="stroke-miterlimit: 2; opacity: 1;"><g class="fills"/><g class="errorbars"/><g class="lines"/><g class="points"><path class="point" transform="translate(505.99,21.12)" d="M2,0A2,2 0 1,1 0,-2A2,2 0 0,1 2,0Z" style="opacity: 1; stroke-width: 0px; fill: rgb(11, 121, 230); fill-opacity: 1;"/></g><g class="text"/></g><g class="trace scatter trace792c6c" style="stroke-miterlimit: 2; opacity: 1;"><g class="fills"/><g class="errorbars"/><g class="lines"/><g class="points"><path class="point" transform="translate(505.99,21.12)" d="M2,0A2,2 0 1,1 0,-2A2,2 0 0,1 2,0Z" style="opacity: 1; stroke-width: 0px; fill: rgb(11, 121, 230); fill-opacity: 1;"/></g><g class="text"/></g><g class="trace scatter trace69a4ba" style="stroke-miterlimit: 2; opacity: 1;"><g class="fills"/><g class="errorbars"/><g class="lines"/><g class="points"><path class="point" transform="translate(505.99,21.12)" d="M2,0A2,2 0 1,1 0,-2A2,2 0 0,1 2,0Z" style="opacity: 1; stroke-width: 0px; fill: rgb(11, 121, 230); fill-opacity: 1;"/></g><g class="text"/></g><g class="trace scatter trace0bd7bd" style="stroke-miterlimit: 2; opacity: 1;"><g class="fills"/><g class="errorbars"/><g class="lines"/><g class="points"><path class="point" transform="translate(505.99,21.12)" d="M2,0A2,2 0 1,1 0,-2A2,2 0 0,1 2,0Z" style="opacity: 1; stroke-width: 0px; fill: rgb(11, 121, 230); fill-opacity: 1;"/></g><g class="text"/></g><g class="trace scatter trace625832" style="stroke-miterlimit: 2; opacity: 1;"><g class="fills"/><g class="errorbars"/><g class="lines"/><g class="points"><path class="point" transform="translate(505.99,21.12)" d="M2,0A2,2 0 1,1 0,-2A2,2 0 0,1 2,0Z" style="opacity: 1; stroke-width: 0px; fill: rgb(11, 121, 230); fill-opacity: 1;"/></g><g class="text"/></g><g class="trace scatter trace4c4bb9" style="stroke-miterlimit: 2; opacity: 1;"><g class="fills"/><g class="errorbars"/><g class="lines"/><g class="points"><path class="point" transform="translate(505.99,21.12)" d="M2,0A2,2 0 1,1 0,-2A2,2 0 0,1 2,0Z" style="opacity: 1; stroke-width: 0px; fill: rgb(11, 121, 230); fill-opacity: 1;"/></g><g class="text"/></g><g class="trace scatter tracea7dbf5" style="stroke-miterlimit: 2; opacity: 1;"><g class="fills"/><g class="errorbars"/><g class="lines"/><g class="points"><path class="point" transform="translate(505.99,21.12)" d="M2,0A2,2 0 1,1 0,-2A2,2 0 0,1 2,0Z" style="opacity: 1; stroke-width: 0px; fill: rgb(11, 121, 230); fill-opacity: 1;"/></g><g class="text"/></g><g class="trace scatter trace8cce51" style="stroke-miterlimit: 2; opacity: 1;"><g class="fills"/><g class="errorbars"/><g class="lines"/><g class="points"><path class="point" transform="translate(505.99,21.12)" d="M2,0A2,2 0 1,1 0,-2A2,2 0 0,1 2,0Z" style="opacity: 1; stroke-width: 0px; fill: rgb(11, 121, 230); fill-opacity: 1;"/></g><g class="text"/></g><g class="trace scatter tracece6da0" style="stroke-miterlimit: 2; opacity: 1;"><g class="fills"/><g class="errorbars"/><g class="lines"/><g class="points"><path class="point" transform="translate(505.99,21.12)" d="M2,0A2,2 0 1,1 0,-2A2,2 0 0,1 2,0Z" style="opacity: 1; stroke-width: 0px; fill: rgb(11, 121, 230); fill-opacity: 1;"/></g><g class="text"/></g><g class="trace scatter trace7f54f5" style="stroke-miterlimit: 2; opacity: 1;"><g class="fills"/><g class="errorbars"/><g class="lines"/><g class="points"><path class="point" transform="translate(505.99,21.12)" d="M2,0A2,2 0 1,1 0,-2A2,2 0 0,1 2,0Z" style="opacity: 1; stroke-width: 0px; fill: rgb(11, 121, 230); fill-opacity: 1;"/></g><g class="text"/></g><g class="trace scatter tracef60eb1" style="stroke-miterlimit: 2; opacity: 1;"><g class="fills"/><g class="errorbars"/><g class="lines"/><g class="points"><path class="point" transform="translate(505.99,21.12)" d="M2,0A2,2 0 1,1 0,-2A2,2 0 0,1 2,0Z" style="opacity: 1; stroke-width: 0px; fill: rgb(11, 121, 230); fill-opacity: 1;"/></g><g class="text"/></g><g class="trace scatter trace776430" style="stroke-miterlimit: 2; opacity: 1;"><g class="fills"/><g class="errorbars"/><g class="lines"/><g class="points"><path class="point" transform="translate(505.99,21.12)" d="M2,0A2,2 0 1,1 0,-2A2,2 0 0,1 2,0Z" style="opacity: 1; stroke-width: 0px; fill: rgb(11, 121, 230); fill-opacity: 1;"/></g><g class="text"/></g><g class="trace scatter tracee46399" style="stroke-miterlimit: 2; opacity: 1;"><g class="fills"/><g class="errorbars"/><g class="lines"/><g class="points"><path class="point" transform="translate(505.99,21.12)" d="M2,0A2,2 0 1,1 0,-2A2,2 0 0,1 2,0Z" style="opacity: 1; stroke-width: 0px; fill: rgb(11, 121, 230); fill-opacity: 1;"/></g><g class="text"/></g><g class="trace scatter trace218306" style="stroke-miterlimit: 2; opacity: 1;"><g class="fills"/><g class="errorbars"/><g class="lines"/><g class="points"><path class="point" transform="translate(505.99,21.12)" d="M2,0A2,2 0 1,1 0,-2A2,2 0 0,1 2,0Z" style="opacity: 1; stroke-width: 0px; fill: rgb(11, 121, 230); fill-opacity: 1;"/></g><g class="text"/></g></g></g></g><path class="xlines-above crisp" d="M0,0" style="fill: none;"/><path class="ylines-above crisp" d="M0,0" style="fill: none;"/><g class="overlines-above"/><g class="xaxislayer-above"><g class="xtick"><text text-anchor="middle" x="0" y="102.23076923076925" transform="translate(78.01,0)" style="font-family: 'Lucida Grande', 'Open Sans', verdana, arial, sans-serif; font-size: 9px; fill: rgb(0, 0, 0); fill-opacity: 0.5; white-space: pre; opacity: 1;">0</text></g><g class="xtick"><text text-anchor="middle" x="0" y="102.23076923076925" style="font-family: 'Lucida Grande', 'Open Sans', verdana, arial, sans-serif; font-size: 9px; fill: rgb(0, 0, 0); fill-opacity: 0.5; white-space: pre; opacity: 1;" transform="translate(203.25,0)">1</text></g><g class="xtick"><text text-anchor="middle" x="0" y="102.23076923076925" style="font-family: 'Lucida Grande', 'Open Sans', verdana, arial, sans-serif; font-size: 9px; fill: rgb(0, 0, 0); fill-opacity: 0.5; white-space: pre; opacity: 1;" transform="translate(328.5,0)">2</text></g><g class="xtick"><text text-anchor="middle" x="0" y="102.23076923076925" style="font-family: 'Lucida Grande', 'Open Sans', verdana, arial, sans-serif; font-size: 9px; fill: rgb(0, 0, 0); fill-opacity: 0.5; white-space: pre; opacity: 1;" transform="translate(453.74,0)">3</text></g><g class="xtick"><text text-anchor="middle" x="0" y="102.23076923076925" style="font-family: 'Lucida Grande', 'Open Sans', verdana, arial, sans-serif; font-size: 9px; fill: rgb(0, 0, 0); fill-opacity: 0.5; white-space: pre; opacity: 1;" transform="translate(578.99,0)">4</text></g><g class="xtick"><text text-anchor="middle" x="0" y="102.23076923076925" style="font-family: 'Lucida Grande', 'Open Sans', verdana, arial, sans-serif; font-size: 9px; fill: rgb(0, 0, 0); fill-opacity: 0.5; white-space: pre; opacity: 1;" transform="translate(704.23,0)">5</text></g><g class="xtick"><text text-anchor="middle" x="0" y="102.23076923076925" style="font-family: 'Lucida Grande', 'Open Sans', verdana, arial, sans-serif; font-size: 9px; fill: rgb(0, 0, 0); fill-opacity: 0.5; white-space: pre; opacity: 1;" transform="translate(829.48,0)">6</text></g><g class="xtick"><text text-anchor="middle" x="0" y="102.23076923076925" style="font-family: 'Lucida Grande', 'Open Sans', verdana, arial, sans-serif; font-size: 9px; fill: rgb(0, 0, 0); fill-opacity: 0.5; white-space: pre; opacity: 1;" transform="translate(954.72,0)">7</text></g><g class="xtick"><text text-anchor="middle" x="0" y="102.23076923076925" style="font-family: 'Lucida Grande', 'Open Sans', verdana, arial, sans-serif; font-size: 9px; fill: rgb(0, 0, 0); fill-opacity: 0.5; white-space: pre; opacity: 1;" transform="translate(1079.97,0)">8</text></g></g><g class="yaxislayer-above"><g class="ytick"><text text-anchor="end" x="72" y="3.15" transform="translate(0,71.12000000000002)" style="font-family: 'Lucida Grande', 'Open Sans', verdana, arial, sans-serif; font-size: 9px; fill: rgb(0, 0, 0); fill-opacity: 0.5; white-space: pre; opacity: 1;">Reports  </text></g></g><g class="overaxes-above"/></g><g class="subplot x2y2"><g class="layer-subplot"><g class="shapelayer"/><g class="imagelayer"/></g><g class="minor-gridlayer"><g class="x2"/><g class="y2"/></g><g class="gridlayer"><g class="x2"><path class="x2grid crisp" transform="translate(219.33,0)" d="M0,120.3846153846154v42.230769230769226" style="stroke: rgb(0, 0, 0); stroke-opacity: 0.1; stroke-width: 1px;"/><path class="x2grid crisp" transform="translate(360.65,0)" d="M0,120.3846153846154v42.230769230769226" style="stroke: rgb(0, 0, 0); stroke-opacity: 0.1; stroke-width: 1px;"/><path class="x2grid crisp" transform="translate(501.97,0)" d="M0,120.3846153846154v42.230769230769226" style="stroke: rgb(0, 0, 0); stroke-opacity: 0.1; stroke-width: 1px;"/><path class="x2grid crisp" transform="translate(643.29,0)" d="M0,120.3846153846154v42.230769230769226" style="stroke: rgb(0, 0, 0); stroke-opacity: 0.1; stroke-width: 1px;"/><path class="x2grid crisp" transform="translate(784.61,0)" d="M0,120.3846153846154v42.230769230769226" style="stroke: rgb(0, 0, 0); stroke-opacity: 0.1; stroke-width: 1px;"/><path class="x2grid crisp" transform="translate(925.93,0)" d="M0,120.3846153846154v42.230769230769226" style="stroke: rgb(0, 0, 0); stroke-opacity: 0.1; stroke-width: 1px;"/><path class="x2grid crisp" transform="translate(1067.25,0)" d="M0,120.3846153846154v42.230769230769226" style="stroke: rgb(0, 0, 0); stroke-opacity: 0.1; stroke-width: 1px;"/></g><g class="y2"><path class="y2grid crisp" transform="translate(0,141.5046153846154)" d="M73,0h1012" style="stroke: rgb(0, 0, 0); stroke-opacity: 0.1; stroke-width: 1px;"/></g></g><g class="zerolinelayer"><path class="x2zl zl crisp" transform="translate(78.01,0)" d="M0,120.3846153846154v42.230769230769226" style="stroke: rgb(0, 0, 0); stroke-opacity: 0.1; stroke-width: 2px;"/></g><g class="layer-between"><g class="shapelayer"/><g class="imagelayer"/></g><path class="xlines-below"/><path class="ylines-below"/><g class="overlines-below"/><g class="xaxislayer-below"/><g class="yaxislayer-below"/><g class="overaxes-below"/><g class="overplot"><g class="x2y2" transform="translate(73,120.3846153846154)" clip-path="url(#clipc218c2x2y2plot)"><g class="violinlayer mlayer"><g class="trace violins" style="opacity: 0.5;"><path class="violin" d="M-78.95,19.98Q-68.3,19.36 -62.98,18.91C-57.65,18.45 -52.33,17.9 -47.01,17.25C-41.68,16.6 -36.36,15.81 -31.04,15C-25.71,14.19 -20.39,13.24 -15.07,12.37C-9.75,11.5 -4.43,10.55 0.9,9.77C6.22,8.99 11.55,8.23 16.88,7.68C22.2,7.13 27.52,6.71 32.85,6.49C38.17,6.27 43.5,6.23 48.82,6.33C54.14,6.43 59.47,6.73 64.79,7.07C70.12,7.41 75.44,7.92 80.76,8.39C86.08,8.87 91.41,9.41 96.73,9.92C102.05,10.42 107.37,10.95 112.7,11.42C118.02,11.89 123.35,12.34 128.68,12.76C134,13.17 139.33,13.55 144.65,13.91C149.97,14.27 155.3,14.6 160.62,14.94C165.94,15.28 171.27,15.6 176.59,15.94C181.91,16.28 187.24,16.62 192.56,16.96C197.88,17.3 203.21,17.65 208.53,17.97C213.86,18.3 219.18,18.62 224.51,18.91C229.83,19.2 235.16,19.46 240.48,19.69C245.8,19.92 251.13,20.12 256.45,20.28C261.77,20.44 267.1,20.57 272.42,20.67C277.74,20.77 283.07,20.84 288.39,20.9C293.71,20.96 299.04,20.99 304.36,21.02C309.69,21.05 315.01,21.07 320.34,21.08C325.66,21.09 330.99,21.09 336.31,21.1C341.63,21.1 346.96,21.11 352.28,21.11C357.6,21.11 362.93,21.11 368.25,21.11C373.57,21.11 378.9,21.11 384.22,21.11C389.54,21.11 394.87,21.1 400.19,21.1C405.51,21.09 410.84,21.09 416.16,21.08C421.49,21.07 426.81,21.06 432.14,21.04C437.46,21.02 442.79,21 448.11,20.97C453.43,20.94 458.76,20.89 464.08,20.84C469.4,20.79 474.73,20.72 480.05,20.65C485.37,20.58 490.7,20.49 496.02,20.41C501.34,20.33 506.67,20.25 511.99,20.18C517.32,20.11 522.64,20.04 527.97,19.99C533.29,19.95 538.62,19.92 543.94,19.91C549.26,19.9 554.59,19.92 559.91,19.95C565.23,19.98 570.56,20.05 575.88,20.11C581.2,20.18 586.53,20.26 591.85,20.34C597.17,20.42 602.5,20.5 607.82,20.58C613.14,20.65 618.47,20.73 623.79,20.79C629.12,20.85 634.44,20.89 639.77,20.93C645.09,20.97 650.42,21 655.74,21.03C661.06,21.05 666.39,21.07 671.71,21.08C677.03,21.09 682.36,21.09 687.68,21.1C693,21.1 698.33,21.11 703.65,21.11C708.97,21.11 714.3,21.11 719.62,21.11C724.95,21.11 730.27,21.11 735.6,21.11C740.92,21.11 746.25,21.12 751.57,21.12C756.89,21.12 762.22,21.12 767.54,21.12C772.86,21.12 778.19,21.12 783.51,21.12C788.83,21.12 794.16,21.12 799.48,21.12C804.8,21.12 810.13,21.11 815.45,21.11C820.77,21.11 826.1,21.11 831.42,21.11C836.75,21.11 842.07,21.11 847.4,21.11C852.72,21.11 858.05,21.1 863.37,21.1C868.69,21.09 874.02,21.09 879.34,21.08C884.66,21.07 889.99,21.05 895.31,21.03C900.63,21.01 905.96,20.99 911.28,20.95C916.6,20.91 921.93,20.87 927.25,20.81C932.58,20.75 937.9,20.68 943.23,20.61C948.55,20.54 953.88,20.46 959.2,20.38C964.52,20.3 969.85,20.21 975.17,20.14C980.49,20.07 985.82,20.01 991.14,19.97C996.46,19.93 1001.79,19.9 1007.11,19.9C1012.43,19.9 1017.76,19.93 1023.08,19.97C1028.4,20.01 1033.73,20.08 1039.05,20.15C1044.38,20.22 1049.7,20.3 1055.03,20.38C1060.35,20.46 1065.68,20.55 1071,20.62C1076.32,20.69 1081.65,20.75 1086.97,20.81Q1092.29,20.86 1102.94,20.95L1102.94,21.28Q1092.29,21.37 1086.97,21.42C1081.65,21.48 1076.32,21.54 1071,21.61C1065.68,21.68 1060.35,21.77 1055.03,21.85C1049.7,21.93 1044.38,22.01 1039.05,22.08C1033.73,22.15 1028.4,22.22 1023.08,22.26C1017.76,22.3 1012.43,22.33 1007.11,22.33C1001.79,22.33 996.46,22.3 991.14,22.26C985.82,22.22 980.49,22.16 975.17,22.09C969.85,22.02 964.52,21.93 959.2,21.85C953.88,21.77 948.55,21.69 943.23,21.62C937.9,21.55 932.58,21.48 927.25,21.42C921.93,21.36 916.6,21.32 911.28,21.28C905.96,21.24 900.63,21.22 895.31,21.2C889.99,21.18 884.66,21.16 879.34,21.15C874.02,21.14 868.69,21.14 863.37,21.13C858.05,21.13 852.72,21.12 847.4,21.12C842.07,21.12 836.75,21.12 831.42,21.12C826.1,21.12 820.77,21.12 815.45,21.12C810.13,21.12 804.8,21.12 799.48,21.12C794.16,21.12 788.83,21.12 783.51,21.12C778.19,21.12 772.86,21.12 767.54,21.12C762.22,21.12 756.89,21.12 751.57,21.12C746.25,21.12 740.92,21.12 735.6,21.12C730.27,21.12 724.95,21.12 719.62,21.12C714.3,21.12 708.97,21.12 703.65,21.12C698.33,21.12 693,21.12 687.68,21.13C682.36,21.14 677.03,21.15 671.71,21.16C666.39,21.17 661.06,21.19 655.74,21.21C650.42,21.23 645.09,21.26 639.77,21.3C634.44,21.34 629.12,21.38 623.79,21.44C618.47,21.5 613.14,21.58 607.82,21.65C602.5,21.73 597.17,21.81 591.85,21.89C586.53,21.97 581.2,22.05 575.88,22.12C570.56,22.18 565.23,22.25 559.91,22.28C554.59,22.31 549.26,22.34 543.94,22.33C538.62,22.32 533.29,22.29 527.97,22.24C522.64,22.19 517.32,22.12 511.99,22.05C506.67,21.98 501.34,21.9 496.02,21.82C490.7,21.74 485.37,21.65 480.05,21.58C474.73,21.51 469.4,21.44 464.08,21.39C458.76,21.34 453.43,21.29 448.11,21.26C442.79,21.23 437.46,21.21 432.14,21.19C426.81,21.17 421.49,21.16 416.16,21.15C410.84,21.14 405.51,21.14 400.19,21.13C394.87,21.13 389.54,21.12 384.22,21.12C378.9,21.12 373.57,21.12 368.25,21.12C362.93,21.12 357.6,21.12 352.28,21.12C346.96,21.12 341.63,21.13 336.31,21.13C330.99,21.14 325.66,21.14 320.34,21.15C315.01,21.16 309.69,21.18 304.36,21.21C299.04,21.24 293.71,21.27 288.39,21.33C283.07,21.39 277.74,21.46 272.42,21.56C267.1,21.66 261.77,21.79 256.45,21.95C251.13,22.11 245.8,22.31 240.48,22.54C235.16,22.77 229.83,23.04 224.51,23.33C219.18,23.62 213.86,23.94 208.53,24.26C203.21,24.58 197.88,24.93 192.56,25.27C187.24,25.61 181.91,25.95 176.59,26.29C171.27,26.63 165.94,26.95 160.62,27.29C155.3,27.63 149.97,27.96 144.65,28.32C139.33,28.69 134,29.07 128.68,29.48C123.35,29.9 118.02,30.34 112.7,30.81C107.37,31.28 102.05,31.8 96.73,32.31C91.41,32.82 86.09,33.37 80.76,33.85C75.44,34.32 70.12,34.82 64.79,35.16C59.47,35.5 54.14,35.8 48.82,35.9C43.5,36 38.17,35.96 32.85,35.74C27.52,35.52 22.2,35.1 16.88,34.55C11.55,34 6.22,33.24 0.9,32.46C-4.43,31.68 -9.75,30.73 -15.07,29.86C-20.39,28.99 -25.71,28.04 -31.04,27.23C-36.36,26.42 -41.68,25.64 -47.01,24.99C-52.33,24.34 -57.65,23.79 -62.98,23.33Q-68.3,22.87 -78.95,22.25Z" style="vector-effect: none; stroke-width: 2px; stroke: rgb(181, 181, 181); stroke-opacity: 1; fill: rgb(181, 181, 181); fill-opacity: 1;"/><path class="box" d="M59.77,24.81V17.42M22.32,24.81V17.42H133.61V24.81ZM22.32,21.12H17.02M133.61,21.12H179.54" style="vector-effect: non-scaling-stroke; stroke-width: 2px; stroke: rgb(181, 181, 181); stroke-opacity: 1; fill: rgb(181, 181, 181); fill-opacity: 1;"/><path class="mean" d="M140.61,24.81V17.42" style="fill: none; vector-effect: non-scaling-stroke; stroke-width: 2px; stroke-dasharray: 4px, 2px; stroke: rgb(181, 181, 181); stroke-opacity: 1;"/></g></g><g class="scatterlayer mlayer"><g class="trace scatter trace3e4f9f" style="stroke-miterlimit: 2; opacity: 1;"><g class="fills"/><g class="errorbars"/><g class="lines"/><g class="points"><path class="point" transform="translate(1006.97,21.12)" d="M2,0A2,2 0 1,1 0,-2A2,2 0 0,1 2,0Z" style="opacity: 1; stroke-width: 0px; fill: rgb(11, 121, 230); fill-opacity: 1;"/></g><g class="text"/></g><g class="trace scatter trace7abb0e" style="stroke-miterlimit: 2; opacity: 1;"><g class="fills"/><g class="errorbars"/><g class="lines"/><g class="points"><path class="point" transform="translate(176.71,21.12)" d="M2,0A2,2 0 1,1 0,-2A2,2 0 0,1 2,0Z" style="opacity: 1; stroke-width: 0px; fill: rgb(11, 121, 230); fill-opacity: 1;"/></g><g class="text"/></g><g class="trace scatter tracebfd3aa" style="stroke-miterlimit: 2; opacity: 1;"><g class="fills"/><g class="errorbars"/><g class="lines"/><g class="points"><path class="point" transform="translate(105.35,21.12)" d="M2,0A2,2 0 1,1 0,-2A2,2 0 0,1 2,0Z" style="opacity: 1; stroke-width: 0px; fill: rgb(11, 121, 230); fill-opacity: 1;"/></g><g class="text"/></g><g class="trace scatter trace158811" style="stroke-miterlimit: 2; opacity: 1;"><g class="fills"/><g class="errorbars"/><g class="lines"/><g class="points"><path class="point" transform="translate(83.44,21.12)" d="M2,0A2,2 0 1,1 0,-2A2,2 0 0,1 2,0Z" style="opacity: 1; stroke-width: 0px; fill: rgb(11, 121, 230); fill-opacity: 1;"/></g><g class="text"/></g><g class="trace scatter trace38adda" style="stroke-miterlimit: 2; opacity: 1;"><g class="fills"/><g class="errorbars"/><g class="lines"/><g class="points"><path class="point" transform="translate(160.46,21.12)" d="M2,0A2,2 0 1,1 0,-2A2,2 0 0,1 2,0Z" style="opacity: 1; stroke-width: 0px; fill: rgb(11, 121, 230); fill-opacity: 1;"/></g><g class="text"/></g><g class="trace scatter tracecb6554" style="stroke-miterlimit: 2; opacity: 1;"><g class="fills"/><g class="errorbars"/><g class="lines"/><g class="points"><path class="point" transform="translate(62.95,21.12)" d="M2,0A2,2 0 1,1 0,-2A2,2 0 0,1 2,0Z" style="opacity: 1; stroke-width: 0px; fill: rgb(11, 121, 230); fill-opacity: 1;"/></g><g class="text"/></g><g class="trace scatter tracea48069" style="stroke-miterlimit: 2; opacity: 1;"><g class="fills"/><g class="errorbars"/><g class="lines"/><g class="points"><path class="point" transform="translate(546.26,21.12)" d="M2,0A2,2 0 1,1 0,-2A2,2 0 0,1 2,0Z" style="opacity: 1; stroke-width: 0px; fill: rgb(11, 121, 230); fill-opacity: 1;"/></g><g class="text"/></g><g class="trace scatter trace719b08" style="stroke-miterlimit: 2; opacity: 1;"><g class="fills"/><g class="errorbars"/><g class="lines"/><g class="points"><path class="point" transform="translate(179.54,21.12)" d="M2,0A2,2 0 1,1 0,-2A2,2 0 0,1 2,0Z" style="opacity: 1; stroke-width: 0px; fill: rgb(11, 121, 230); fill-opacity: 1;"/></g><g class="text"/></g><g class="trace scatter traced2834e" style="stroke-miterlimit: 2; opacity: 1;"><g class="fills"/><g class="errorbars"/><g class="lines"/><g class="points"><path class="point" transform="translate(37.51,21.12)" d="M2,0A2,2 0 1,1 0,-2A2,2 0 0,1 2,0Z" style="opacity: 1; stroke-width: 0px; fill: rgb(11, 121, 230); fill-opacity: 1;"/></g><g class="text"/></g><g class="trace scatter tracebff91b" style="stroke-miterlimit: 2; opacity: 1;"><g class="fills"/><g class="errorbars"/><g class="lines"/><g class="points"><path class="point" transform="translate(23.38,21.12)" d="M2,0A2,2 0 1,1 0,-2A2,2 0 0,1 2,0Z" style="opacity: 1; stroke-width: 0px; fill: rgb(11, 121, 230); fill-opacity: 1;"/></g><g class="text"/></g><g class="trace scatter tracea66625" style="stroke-miterlimit: 2; opacity: 1;"><g class="fills"/><g class="errorbars"/><g class="lines"/><g class="points"><path class="point" transform="translate(56.59,21.12)" d="M2,0A2,2 0 1,1 0,-2A2,2 0 0,1 2,0Z" style="opacity: 1; stroke-width: 0px; fill: rgb(11, 121, 230); fill-opacity: 1;"/></g><g class="text"/></g><g class="trace scatter trace23d9bc" style="stroke-miterlimit: 2; opacity: 1;"><g class="fills"/><g class="errorbars"/><g class="lines"/><g class="points"><path class="point" transform="translate(34.69,21.12)" d="M2,0A2,2 0 1,1 0,-2A2,2 0 0,1 2,0Z" style="opacity: 1; stroke-width: 0px; fill: rgb(11, 121, 230); fill-opacity: 1;"/></g><g class="text"/></g><g class="trace scatter tracebabfdd" style="stroke-miterlimit: 2; opacity: 1;"><g class="fills"/><g class="errorbars"/><g class="lines"/><g class="points"><path class="point" transform="translate(26.91,21.12)" d="M2,0A2,2 0 1,1 0,-2A2,2 0 0,1 2,0Z" style="opacity: 1; stroke-width: 0px; fill: rgb(11, 121, 230); fill-opacity: 1;"/></g><g class="text"/></g><g class="trace scatter trace4ee9cb" style="stroke-miterlimit: 2; opacity: 1;"><g class="fills"/><g class="errorbars"/><g class="lines"/><g class="points"><path class="point" transform="translate(21.26,21.12)" d="M2,0A2,2 0 1,1 0,-2A2,2 0 0,1 2,0Z" style="opacity: 1; stroke-width: 0px; fill: rgb(11, 121, 230); fill-opacity: 1;"/></g><g class="text"/></g><g class="trace scatter trace79cce7" style="stroke-miterlimit: 2; opacity: 1;"><g class="fills"/><g class="errorbars"/><g class="lines"/><g class="points"><path class="point" transform="translate(104.64,21.12)" d="M2,0A2,2 0 1,1 0,-2A2,2 0 0,1 2,0Z" style="opacity: 1; stroke-width: 0px; fill: rgb(11, 121, 230); fill-opacity: 1;"/></g><g class="text"/></g><g class="trace scatter traced00056" style="stroke-miterlimit: 2; opacity: 1;"><g class="fills"/><g class="errorbars"/><g class="lines"/><g class="points"><path class="point" transform="translate(106.76,21.12)" d="M2,0A2,2 0 1,1 0,-2A2,2 0 0,1 2,0Z" style="opacity: 1; stroke-width: 0px; fill: rgb(11, 121, 230); fill-opacity: 1;"/></g><g class="text"/></g><g class="trace scatter tracebd0735" style="stroke-miterlimit: 2; opacity: 1;"><g class="fills"/><g class="errorbars"/><g class="lines"/><g class="points"><path class="point" transform="translate(17.02,21.12)" d="M2,0A2,2 0 1,1 0,-2A2,2 0 0,1 2,0Z" style="opacity: 1; stroke-width: 0px; fill: rgb(11, 121, 230); fill-opacity: 1;"/></g><g class="text"/></g><g class="trace scatter trace8a75d4" style="stroke-miterlimit: 2; opacity: 1;"><g class="fills"/><g class="errorbars"/><g class="lines"/><g class="points"><path class="point" transform="translate(19.85,21.12)" d="M2,0A2,2 0 1,1 0,-2A2,2 0 0,1 2,0Z" style="opacity: 1; stroke-width: 0px; fill: rgb(11, 121, 230); fill-opacity: 1;"/></g><g class="text"/></g><g class="trace scatter trace2740bb" style="stroke-miterlimit: 2; opacity: 1;"><g class="fills"/><g class="errorbars"/><g class="lines"/><g class="points"><path class="point" transform="translate(20.55,21.12)" d="M2,0A2,2 0 1,1 0,-2A2,2 0 0,1 2,0Z" style="opacity: 1; stroke-width: 0px; fill: rgb(11, 121, 230); fill-opacity: 1;"/></g><g class="text"/></g><g class="trace scatter trace69deaf" style="stroke-miterlimit: 2; opacity: 1;"><g class="fills"/><g class="errorbars"/><g class="lines"/><g class="points"><path class="point" transform="translate(21.26,21.12)" d="M2,0A2,2 0 1,1 0,-2A2,2 0 0,1 2,0Z" style="opacity: 1; stroke-width: 0px; fill: rgb(11, 121, 230); fill-opacity: 1;"/></g><g class="text"/></g></g></g></g><path class="xlines-above crisp" d="M0,0" style="fill: none;"/><path class="ylines-above crisp" d="M0,0" style="fill: none;"/><g class="overlines-above"/><g class="xaxislayer-above"><g class="x2tick"><text text-anchor="middle" x="0" y="172.61538461538464" transform="translate(78.01,0)" style="font-family: 'Lucida Grande', 'Open Sans', verdana, arial, sans-serif; font-size: 9px; fill: rgb(0, 0, 0); fill-opacity: 0.5; white-space: pre; opacity: 1;">0</text></g><g class="x2tick"><text text-anchor="middle" x="0" y="172.61538461538464" style="font-family: 'Lucida Grande', 'Open Sans', verdana, arial, sans-serif; font-size: 9px; fill: rgb(0, 0, 0); fill-opacity: 0.5; white-space: pre; opacity: 1;" transform="translate(219.33,0)">200</text></g><g class="x2tick"><text text-anchor="middle" x="0" y="172.61538461538464" style="font-family: 'Lucida Grande', 'Open Sans', verdana, arial, sans-serif; font-size: 9px; fill: rgb(0, 0, 0); fill-opacity: 0.5; white-space: pre; opacity: 1;" transform="translate(360.65,0)">400</text></g><g class="x2tick"><text text-anchor="middle" x="0" y="172.61538461538464" style="font-family: 'Lucida Grande', 'Open Sans', verdana, arial, sans-serif; font-size: 9px; fill: rgb(0, 0, 0); fill-opacity: 0.5; white-space: pre; opacity: 1;" transform="translate(501.97,0)">600</text></g><g class="x2tick"><text text-anchor="middle" x="0" y="172.61538461538464" style="font-family: 'Lucida Grande', 'Open Sans', verdana, arial, sans-serif; font-size: 9px; fill: rgb(0, 0, 0); fill-opacity: 0.5; white-space: pre; opacity: 1;" transform="translate(643.29,0)">800</text></g><g class="x2tick"><text text-anchor="middle" x="0" y="172.61538461538464" style="font-family: 'Lucida Grande', 'Open Sans', verdana, arial, sans-serif; font-size: 9px; fill: rgb(0, 0, 0); fill-opacity: 0.5; white-space: pre; opacity: 1;" transform="translate(784.61,0)">1000</text></g><g class="x2tick"><text text-anchor="middle" x="0" y="172.61538461538464" style="font-family: 'Lucida Grande', 'Open Sans', verdana, arial, sans-serif; font-size: 9px; fill: rgb(0, 0, 0); fill-opacity: 0.5; white-space: pre; opacity: 1;" transform="translate(925.93,0)">1200</text></g><g class="x2tick"><text text-anchor="middle" x="0" y="172.61538461538464" style="font-family: 'Lucida Grande', 'Open Sans', verdana, arial, sans-serif; font-size: 9px; fill: rgb(0, 0, 0); fill-opacity: 0.5; white-space: pre; opacity: 1;" transform="translate(1067.25,0)">1400</text></g></g><g class="yaxislayer-above"><g class="y2tick"><text text-anchor="end" x="72" y="3.15" transform="translate(0,141.5046153846154)" style="font-family: 'Lucida Grande', 'Open Sans', verdana, arial, sans-serif; font-size: 9px; fill: rgb(0, 0, 0); fill-opacity: 0.5; white-space: pre; opacity: 1;">Occurrences  </text></g></g><g class="overaxes-above"/></g><g class="subplot x3y3"><g class="layer-subplot"><g class="shapelayer"/><g class="imagelayer"/></g><g class="minor-gridlayer"><g class="x3"/><g class="y3"/></g><g class="gridlayer"><g class="x3"><path class="x3grid crisp" transform="translate(278.4,0)" d="M0,190.76923076923077v42.230769230769226" style="stroke: rgb(0, 0, 0); stroke-opacity: 0.1; stroke-width: 1px;"/><path class="x3grid crisp" transform="translate(478.79,0)" d="M0,190.76923076923077v42.230769230769226" style="stroke: rgb(0, 0, 0); stroke-opacity: 0.1; stroke-width: 1px;"/><path class="x3grid crisp" transform="translate(679.18,0)" d="M0,190.76923076923077v42.230769230769226" style="stroke: rgb(0, 0, 0); stroke-opacity: 0.1; stroke-width: 1px;"/><path class="x3grid crisp" transform="translate(879.57,0)" d="M0,190.76923076923077v42.230769230769226" style="stroke: rgb(0, 0, 0); stroke-opacity: 0.1; stroke-width: 1px;"/><path class="x3grid crisp" transform="translate(1079.97,0)" d="M0,190.76923076923077v42.230769230769226" style="stroke: rgb(0, 0, 0); stroke-opacity: 0.1; stroke-width: 1px;"/></g><g class="y3"><path class="y3grid crisp" transform="translate(0,211.88923076923078)" d="M73,0h1012" style="stroke: rgb(0, 0, 0); stroke-opacity: 0.1; stroke-width: 1px;"/></g></g><g class="zerolinelayer"><path class="x3zl zl crisp" transform="translate(78.01,0)" d="M0,190.76923076923077v42.230769230769226" style="stroke: rgb(0, 0, 0); stroke-opacity: 0.1; stroke-width: 2px;"/></g><g class="layer-between"><g class="shapelayer"/><g class="imagelayer"/></g><path class="xlines-below"/><path class="ylines-below"/><g class="overlines-below"/><g class="xaxislayer-below"/><g class="yaxislayer-below"/><g class="overaxes-below"/><g class="overplot"><g class="x3y3" transform="translate(73,190.76923076923077)" clip-path="url(#clipc218c2x3y3plot)"><g class="violinlayer mlayer"><g class="trace violins" style="opacity: 0.5;"><path class="violin" d="M-0.94,19.98Q-0.17,19.33 0.19,18.91C0.59,18.44 0.96,17.86 1.32,17.25C1.72,16.57 2.08,15.78 2.45,15C2.84,14.16 3.21,13.24 3.59,12.37C3.97,11.5 4.33,10.58 4.72,9.77C5.08,9.03 5.43,8.26 5.85,7.68C6.2,7.2 6.56,6.71 6.98,6.49C7.33,6.31 7.76,6.25 8.12,6.33C8.51,6.42 8.89,6.76 9.25,7.07C9.65,7.42 10.01,7.93 10.38,8.39C10.77,8.87 11.13,9.41 11.51,9.92C11.89,10.42 12.26,10.94 12.65,11.42C13.02,11.88 13.4,12.34 13.78,12.76C14.15,13.17 14.53,13.54 14.91,13.91C15.28,14.27 15.66,14.6 16.04,14.94C16.42,15.28 16.79,15.6 17.17,15.94C17.55,16.28 17.93,16.62 18.31,16.96C18.69,17.3 19.06,17.64 19.44,17.97C19.81,18.29 20.19,18.62 20.57,18.91C20.94,19.19 21.32,19.46 21.7,19.69C22.07,19.91 22.45,20.11 22.84,20.28C23.21,20.44 23.59,20.57 23.97,20.67C24.34,20.77 24.72,20.84 25.1,20.9C25.48,20.96 25.85,20.99 26.23,21.02C26.61,21.05 26.99,21.07 27.37,21.08C27.75,21.09 28.12,21.09 28.5,21.1C28.88,21.1 29.25,21.11 29.63,21.11C30.01,21.11 30.38,21.11 30.76,21.11C31.14,21.11 31.52,21.11 31.9,21.11C32.28,21.11 32.65,21.1 33.03,21.1C33.41,21.09 33.78,21.09 34.16,21.08C34.54,21.07 34.91,21.06 35.29,21.04C35.67,21.02 36.05,21 36.43,20.97C36.81,20.94 37.18,20.89 37.56,20.84C37.94,20.79 38.31,20.72 38.69,20.65C39.07,20.58 39.44,20.49 39.82,20.41C40.2,20.33 40.57,20.25 40.95,20.18C41.33,20.11 41.71,20.04 42.09,19.99C42.47,19.95 42.84,19.92 43.22,19.91C43.6,19.9 43.97,19.92 44.35,19.95C44.73,19.98 45.1,20.05 45.48,20.11C45.86,20.18 46.24,20.26 46.62,20.34C47,20.42 47.37,20.5 47.75,20.58C48.13,20.65 48.5,20.73 48.88,20.79C49.26,20.85 49.63,20.89 50.01,20.93C50.39,20.97 50.77,21 51.15,21.03C51.53,21.05 51.9,21.07 52.28,21.08C52.66,21.09 53.03,21.09 53.41,21.1C53.79,21.1 54.16,21.11 54.54,21.11C54.92,21.11 55.3,21.11 55.68,21.11C56.06,21.11 56.43,21.11 56.81,21.11C57.19,21.11 57.56,21.12 57.94,21.12C58.32,21.12 58.69,21.12 59.07,21.12C59.45,21.12 59.83,21.12 60.21,21.12C60.59,21.12 60.96,21.12 61.34,21.12C61.72,21.12 62.09,21.11 62.47,21.11C62.85,21.11 63.22,21.11 63.6,21.11C63.98,21.11 64.35,21.11 64.73,21.11C65.11,21.11 65.49,21.11 65.87,21.1C66.25,21.1 66.62,21.09 67,21.08C67.38,21.07 67.75,21.05 68.13,21.03C68.51,21.01 68.88,20.99 69.26,20.95C69.64,20.91 70.02,20.87 70.4,20.81C70.78,20.75 71.15,20.68 71.53,20.61C71.91,20.54 72.28,20.46 72.66,20.38C73.04,20.3 73.41,20.21 73.79,20.14C74.17,20.07 74.55,20.01 74.93,19.97C75.31,19.93 75.68,19.9 76.06,19.9C76.44,19.9 76.81,19.93 77.19,19.97C77.57,20.01 77.94,20.08 78.32,20.15C78.7,20.22 79.08,20.3 79.46,20.38C79.84,20.46 80.21,20.55 80.59,20.62C80.97,20.69 81.34,20.75 81.72,20.81Q82.1,20.86 82.85,20.95L82.85,21.28Q82.1,21.37 81.72,21.42C81.34,21.48 80.97,21.54 80.59,21.61C80.21,21.68 79.84,21.77 79.46,21.85C79.08,21.93 78.7,22.01 78.32,22.08C77.94,22.15 77.57,22.22 77.19,22.26C76.81,22.3 76.44,22.33 76.06,22.33C75.68,22.33 75.31,22.3 74.93,22.26C74.55,22.22 74.17,22.16 73.79,22.09C73.41,22.02 73.04,21.93 72.66,21.85C72.28,21.77 71.91,21.69 71.53,21.62C71.15,21.55 70.78,21.48 70.4,21.42C70.02,21.36 69.64,21.32 69.26,21.28C68.88,21.24 68.51,21.22 68.13,21.2C67.75,21.18 67.38,21.16 67,21.15C66.62,21.14 66.25,21.13 65.87,21.13C65.49,21.12 65.11,21.12 64.73,21.12C64.35,21.12 63.98,21.12 63.6,21.12C63.22,21.12 62.85,21.12 62.47,21.12C62.09,21.12 61.72,21.12 61.34,21.12C60.96,21.12 60.59,21.12 60.21,21.12C59.83,21.12 59.45,21.12 59.07,21.12C58.69,21.12 58.32,21.12 57.94,21.12C57.56,21.12 57.19,21.12 56.81,21.12C56.43,21.12 56.06,21.12 55.68,21.12C55.3,21.12 54.92,21.12 54.54,21.12C54.16,21.12 53.79,21.12 53.41,21.13C53.03,21.14 52.66,21.15 52.28,21.16C51.9,21.17 51.53,21.19 51.15,21.21C50.77,21.23 50.39,21.26 50.01,21.3C49.63,21.34 49.26,21.38 48.88,21.44C48.5,21.5 48.13,21.58 47.75,21.65C47.37,21.73 47,21.81 46.62,21.89C46.24,21.97 45.86,22.05 45.48,22.12C45.1,22.18 44.73,22.25 44.35,22.28C43.97,22.31 43.6,22.34 43.22,22.33C42.84,22.32 42.47,22.29 42.09,22.24C41.71,22.19 41.33,22.12 40.95,22.05C40.57,21.98 40.2,21.9 39.82,21.82C39.44,21.74 39.07,21.65 38.69,21.58C38.31,21.51 37.94,21.44 37.56,21.39C37.18,21.34 36.81,21.29 36.43,21.26C36.05,21.23 35.67,21.21 35.29,21.19C34.91,21.17 34.54,21.16 34.16,21.15C33.78,21.14 33.41,21.14 33.03,21.13C32.65,21.13 32.28,21.12 31.9,21.12C31.52,21.12 31.14,21.12 30.76,21.12C30.38,21.12 30.01,21.12 29.63,21.12C29.25,21.12 28.88,21.13 28.5,21.13C28.12,21.14 27.75,21.14 27.37,21.15C26.99,21.16 26.61,21.18 26.23,21.21C25.85,21.24 25.48,21.27 25.1,21.33C24.72,21.39 24.34,21.46 23.97,21.56C23.59,21.66 23.21,21.79 22.84,21.95C22.45,22.12 22.07,22.32 21.7,22.54C21.31,22.77 20.94,23.05 20.57,23.33C20.19,23.62 19.81,23.94 19.44,24.26C19.06,24.59 18.69,24.93 18.31,25.27C17.93,25.61 17.55,25.95 17.17,26.29C16.79,26.63 16.42,26.95 16.04,27.29C15.66,27.63 15.28,27.96 14.91,28.32C14.53,28.69 14.15,29.07 13.78,29.48C13.4,29.9 13.02,30.35 12.65,30.81C12.26,31.29 11.89,31.81 11.51,32.31C11.13,32.82 10.77,33.36 10.38,33.85C10.01,34.31 9.65,34.81 9.25,35.16C8.89,35.47 8.51,35.81 8.12,35.9C7.76,35.98 7.33,35.92 6.98,35.74C6.56,35.52 6.2,35.03 5.85,34.55C5.43,33.97 5.08,33.2 4.72,32.46C4.33,31.65 3.97,30.73 3.59,29.86C3.21,28.99 2.84,28.07 2.45,27.23C2.08,26.45 1.72,25.67 1.32,24.99C0.96,24.38 0.59,23.81 0.19,23.33Q-0.17,22.91 -0.94,22.25Z" style="vector-effect: none; stroke-width: 2px; stroke: rgb(181, 181, 181); stroke-opacity: 1; fill: rgb(181, 181, 181); fill-opacity: 1;"/><path class="box" d="M8.89,24.81V17.42M6.24,24.81V17.42H14.13V24.81ZM6.24,21.12H5.86M14.13,21.12H17.38" style="vector-effect: non-scaling-stroke; stroke-width: 2px; stroke: rgb(181, 181, 181); stroke-opacity: 1; fill: rgb(181, 181, 181); fill-opacity: 1;"/><path class="mean" d="M14.62,24.81V17.42" style="fill: none; vector-effect: non-scaling-stroke; stroke-width: 2px; stroke-dasharray: 4px, 2px; stroke: rgb(181, 181, 181); stroke-opacity: 1;"/></g></g><g class="scatterlayer mlayer"><g class="trace scatter trace438061" style="stroke-miterlimit: 2; opacity: 1;"><g class="fills"/><g class="errorbars"/><g class="lines"/><g class="points"><path class="point" transform="translate(76.05,21.12)" d="M2,0A2,2 0 1,1 0,-2A2,2 0 0,1 2,0Z" style="opacity: 1; stroke-width: 0px; fill: rgb(11, 121, 230); fill-opacity: 1;"/></g><g class="text"/></g><g class="trace scatter trace97db81" style="stroke-miterlimit: 2; opacity: 1;"><g class="fills"/><g class="errorbars"/><g class="lines"/><g class="points"><path class="point" transform="translate(17.18,21.12)" d="M2,0A2,2 0 1,1 0,-2A2,2 0 0,1 2,0Z" style="opacity: 1; stroke-width: 0px; fill: rgb(11, 121, 230); fill-opacity: 1;"/></g><g class="text"/></g><g class="trace scatter traceced1c6" style="stroke-miterlimit: 2; opacity: 1;"><g class="fills"/><g class="errorbars"/><g class="lines"/><g class="points"><path class="point" transform="translate(12.12,21.12)" d="M2,0A2,2 0 1,1 0,-2A2,2 0 0,1 2,0Z" style="opacity: 1; stroke-width: 0px; fill: rgb(11, 121, 230); fill-opacity: 1;"/></g><g class="text"/></g><g class="trace scatter trace3c70f3" style="stroke-miterlimit: 2; opacity: 1;"><g class="fills"/><g class="errorbars"/><g class="lines"/><g class="points"><path class="point" transform="translate(10.57,21.12)" d="M2,0A2,2 0 1,1 0,-2A2,2 0 0,1 2,0Z" style="opacity: 1; stroke-width: 0px; fill: rgb(11, 121, 230); fill-opacity: 1;"/></g><g class="text"/></g><g class="trace scatter trace0aa507" style="stroke-miterlimit: 2; opacity: 1;"><g class="fills"/><g class="errorbars"/><g class="lines"/><g class="points"><path class="point" transform="translate(16.03,21.12)" d="M2,0A2,2 0 1,1 0,-2A2,2 0 0,1 2,0Z" style="opacity: 1; stroke-width: 0px; fill: rgb(11, 121, 230); fill-opacity: 1;"/></g><g class="text"/></g><g class="trace scatter trace5a118b" style="stroke-miterlimit: 2; opacity: 1;"><g class="fills"/><g class="errorbars"/><g class="lines"/><g class="points"><path class="point" transform="translate(9.12,21.12)" d="M2,0A2,2 0 1,1 0,-2A2,2 0 0,1 2,0Z" style="opacity: 1; stroke-width: 0px; fill: rgb(11, 121, 230); fill-opacity: 1;"/></g><g class="text"/></g><g class="trace scatter trace22604f" style="stroke-miterlimit: 2; opacity: 1;"><g class="fills"/><g class="errorbars"/><g class="lines"/><g class="points"><path class="point" transform="translate(43.38,21.12)" d="M2,0A2,2 0 1,1 0,-2A2,2 0 0,1 2,0Z" style="opacity: 1; stroke-width: 0px; fill: rgb(11, 121, 230); fill-opacity: 1;"/></g><g class="text"/></g><g class="trace scatter tracea8a5a8" style="stroke-miterlimit: 2; opacity: 1;"><g class="fills"/><g class="errorbars"/><g class="lines"/><g class="points"><path class="point" transform="translate(17.38,21.12)" d="M2,0A2,2 0 1,1 0,-2A2,2 0 0,1 2,0Z" style="opacity: 1; stroke-width: 0px; fill: rgb(11, 121, 230); fill-opacity: 1;"/></g><g class="text"/></g><g class="trace scatter trace6e0fc8" style="stroke-miterlimit: 2; opacity: 1;"><g class="fills"/><g class="errorbars"/><g class="lines"/><g class="points"><path class="point" transform="translate(7.31,21.12)" d="M2,0A2,2 0 1,1 0,-2A2,2 0 0,1 2,0Z" style="opacity: 1; stroke-width: 0px; fill: rgb(11, 121, 230); fill-opacity: 1;"/></g><g class="text"/></g><g class="trace scatter trace7d8d30" style="stroke-miterlimit: 2; opacity: 1;"><g class="fills"/><g class="errorbars"/><g class="lines"/><g class="points"><path class="point" transform="translate(6.31,21.12)" d="M2,0A2,2 0 1,1 0,-2A2,2 0 0,1 2,0Z" style="opacity: 1; stroke-width: 0px; fill: rgb(11, 121, 230); fill-opacity: 1;"/></g><g class="text"/></g><g class="trace scatter trace8b84a4" style="stroke-miterlimit: 2; opacity: 1;"><g class="fills"/><g class="errorbars"/><g class="lines"/><g class="points"><path class="point" transform="translate(8.67,21.12)" d="M2,0A2,2 0 1,1 0,-2A2,2 0 0,1 2,0Z" style="opacity: 1; stroke-width: 0px; fill: rgb(11, 121, 230); fill-opacity: 1;"/></g><g class="text"/></g><g class="trace scatter trace990a5f" style="stroke-miterlimit: 2; opacity: 1;"><g class="fills"/><g class="errorbars"/><g class="lines"/><g class="points"><path class="point" transform="translate(7.11,21.12)" d="M2,0A2,2 0 1,1 0,-2A2,2 0 0,1 2,0Z" style="opacity: 1; stroke-width: 0px; fill: rgb(11, 121, 230); fill-opacity: 1;"/></g><g class="text"/></g><g class="trace scatter trace82132a" style="stroke-miterlimit: 2; opacity: 1;"><g class="fills"/><g class="errorbars"/><g class="lines"/><g class="points"><path class="point" transform="translate(6.56,21.12)" d="M2,0A2,2 0 1,1 0,-2A2,2 0 0,1 2,0Z" style="opacity: 1; stroke-width: 0px; fill: rgb(11, 121, 230); fill-opacity: 1;"/></g><g class="text"/></g><g class="trace scatter trace919beb" style="stroke-miterlimit: 2; opacity: 1;"><g class="fills"/><g class="errorbars"/><g class="lines"/><g class="points"><path class="point" transform="translate(6.16,21.12)" d="M2,0A2,2 0 1,1 0,-2A2,2 0 0,1 2,0Z" style="opacity: 1; stroke-width: 0px; fill: rgb(11, 121, 230); fill-opacity: 1;"/></g><g class="text"/></g><g class="trace scatter traced9cd91" style="stroke-miterlimit: 2; opacity: 1;"><g class="fills"/><g class="errorbars"/><g class="lines"/><g class="points"><path class="point" transform="translate(12.07,21.12)" d="M2,0A2,2 0 1,1 0,-2A2,2 0 0,1 2,0Z" style="opacity: 1; stroke-width: 0px; fill: rgb(11, 121, 230); fill-opacity: 1;"/></g><g class="text"/></g><g class="trace scatter trace7c25b8" style="stroke-miterlimit: 2; opacity: 1;"><g class="fills"/><g class="errorbars"/><g class="lines"/><g class="points"><path class="point" transform="translate(12.22,21.12)" d="M2,0A2,2 0 1,1 0,-2A2,2 0 0,1 2,0Z" style="opacity: 1; stroke-width: 0px; fill: rgb(11, 121, 230); fill-opacity: 1;"/></g><g class="text"/></g><g class="trace scatter trace55fbed" style="stroke-miterlimit: 2; opacity: 1;"><g class="fills"/><g class="errorbars"/><g class="lines"/><g class="points"><path class="point" transform="translate(5.86,21.12)" d="M2,0A2,2 0 1,1 0,-2A2,2 0 0,1 2,0Z" style="opacity: 1; stroke-width: 0px; fill: rgb(11, 121, 230); fill-opacity: 1;"/></g><g class="text"/></g><g class="trace scatter trace50c39e" style="stroke-miterlimit: 2; opacity: 1;"><g class="fills"/><g class="errorbars"/><g class="lines"/><g class="points"><path class="point" transform="translate(6.06,21.12)" d="M2,0A2,2 0 1,1 0,-2A2,2 0 0,1 2,0Z" style="opacity: 1; stroke-width: 0px; fill: rgb(11, 121, 230); fill-opacity: 1;"/></g><g class="text"/></g><g class="trace scatter tracedcdfe5" style="stroke-miterlimit: 2; opacity: 1;"><g class="fills"/><g class="errorbars"/><g class="lines"/><g class="points"><path class="point" transform="translate(6.11,21.12)" d="M2,0A2,2 0 1,1 0,-2A2,2 0 0,1 2,0Z" style="opacity: 1; stroke-width: 0px; fill: rgb(11, 121, 230); fill-opacity: 1;"/></g><g class="text"/></g><g class="trace scatter trace610a51" style="stroke-miterlimit: 2; opacity: 1;"><g class="fills"/><g class="errorbars"/><g class="lines"/><g class="points"><path class="point" transform="translate(6.16,21.12)" d="M2,0A2,2 0 1,1 0,-2A2,2 0 0,1 2,0Z" style="opacity: 1; stroke-width: 0px; fill: rgb(11, 121, 230); fill-opacity: 1;"/></g><g class="text"/></g></g></g></g><path class="xlines-above crisp" d="M0,0" style="fill: none;"/><path class="ylines-above crisp" d="M0,0" style="fill: none;"/><g class="overlines-above"/><g class="xaxislayer-above"><g class="x3tick"><text text-anchor="middle" x="0" y="243" transform="translate(78.01,0)" style="font-family: 'Lucida Grande', 'Open Sans', verdana, arial, sans-serif; font-size: 9px; fill: rgb(0, 0, 0); fill-opacity: 0.5; white-space: pre; opacity: 1;">0%</text></g><g class="x3tick"><text text-anchor="middle" x="0" y="243" style="font-family: 'Lucida Grande', 'Open Sans', verdana, arial, sans-serif; font-size: 9px; fill: rgb(0, 0, 0); fill-opacity: 0.5; white-space: pre; opacity: 1;" transform="translate(278.4,0)">20%</text></g><g class="x3tick"><text text-anchor="middle" x="0" y="243" style="font-family: 'Lucida Grande', 'Open Sans', verdana, arial, sans-serif; font-size: 9px; fill: rgb(0, 0, 0); fill-opacity: 0.5; white-space: pre; opacity: 1;" transform="translate(478.79,0)">40%</text></g><g class="x3tick"><text text-anchor="middle" x="0" y="243" style="font-family: 'Lucida Grande', 'Open Sans', verdana, arial, sans-serif; font-size: 9px; fill: rgb(0, 0, 0); fill-opacity: 0.5; white-space: pre; opacity: 1;" transform="translate(679.18,0)">60%</text></g><g class="x3tick"><text text-anchor="middle" x="0" y="243" style="font-family: 'Lucida Grande', 'Open Sans', verdana, arial, sans-serif; font-size: 9px; fill: rgb(0, 0, 0); fill-opacity: 0.5; white-space: pre; opacity: 1;" transform="translate(879.57,0)">80%</text></g><g class="x3tick"><text text-anchor="middle" x="0" y="243" style="font-family: 'Lucida Grande', 'Open Sans', verdana, arial, sans-serif; font-size: 9px; fill: rgb(0, 0, 0); fill-opacity: 0.5; white-space: pre; opacity: 1;" transform="translate(1079.97,0)">100%</text></g></g><g class="yaxislayer-above"><g class="y3tick"><text text-anchor="end" x="72" y="3.15" transform="translate(0,211.88923076923078)" style="font-family: 'Lucida Grande', 'Open Sans', verdana, arial, sans-serif; font-size: 9px; fill: rgb(0, 0, 0); fill-opacity: 0.5; white-space: pre; opacity: 1;">% of all reads  </text></g></g><g class="overaxes-above"/></g></g><g class="polarlayer"/><g class="smithlayer"/><g class="ternarylayer"/><g class="geolayer"/><g class="funnelarealayer"/><g class="pielayer"/><g class="iciclelayer"/><g class="treemaplayer"/><g class="sunburstlayer"/><g class="glimages"/><defs id="topdefs-c218c2"><g class="clips"/></defs><g class="layer-above"><g class="imagelayer"/><g class="shapelayer"/></g><g class="infolayer"><g class="g-gtitle"><text class="gtitle" x="550" y="25" text-anchor="middle" dy="0em" style="opacity: 1; font-family: 'Lucida Grande', 'Open Sans', verdana, arial, sans-serif; font-size: 20px; fill: rgb(42, 63, 95); fill-opacity: 1; white-space: pre;"><tspan class="line" dy="0em" x="550" y="25">FastQC: Top overrepresented sequences</tspan><tspan class="line" dy="1.3em" x="550" y="25"><tspan style="font-size:70%" dy="-0.6em">20 samples</tspan><tspan dy="0.42em"></tspan></tspan></text></g><g class="g-xtitle"/><g class="g-x2title"/><g class="g-x3title"/><g class="g-ytitle"/><g class="g-y2title"/><g class="g-y3title"/></g></svg>