<svg class="main-svg" xmlns="http://www.w3.org/2000/svg" xmlns:xlink="http://www.w3.org/1999/xlink" width="2200" height="686" style="" viewBox="0 0 1100 343"><rect x="0" y="0" width="1100" height="343" style="fill: rgb(255, 255, 255); fill-opacity: 1;"/><defs id="defs-6e2c23"><g class="clips"><clipPath id="clip6e2c23xyplot" class="plotclip"><rect width="983" height="42.16666666666666"/></clipPath><clipPath id="clip6e2c23x2y2plot" class="plotclip"><rect width="983" height="42.16666666666666"/></clipPath><clipPath id="clip6e2c23x3y3plot" class="plotclip"><rect width="983" height="42.16666666666666"/></clipPath><clipPath id="clip6e2c23x4y4plot" class="plotclip"><rect width="983" height="42.166666666666664"/></clipPath><clipPath class="axesclip" id="clip6e2c23x"><rect x="102" y="0" width="983" height="343"/></clipPath><clipPath class="axesclip" id="clip6e2c23y"><rect x="0" y="50" width="1100" height="42.16666666666666"/></clipPath><clipPath class="axesclip" id="clip6e2c23xy"><rect x="102" y="50" width="983" height="42.16666666666666"/></clipPath><clipPath class="axesclip" id="clip6e2c23y2"><rect x="0" y="120.27777777777779" width="1100" height="42.16666666666666"/></clipPath><clipPath class="axesclip" id="clip6e2c23xy2"><rect x="102" y="120.27777777777779" width="983" height="42.16666666666666"/></clipPath><clipPath class="axesclip" id="clip6e2c23y3"><rect x="0" y="190.55555555555557" width="1100" height="42.16666666666666"/></clipPath><clipPath class="axesclip" id="clip6e2c23xy3"><rect x="102" y="190.55555555555557" width="983" height="42.16666666666666"/></clipPath><clipPath class="axesclip" id="clip6e2c23y4"><rect x="0" y="260.83333333333337" width="1100" height="42.166666666666664"/></clipPath><clipPath class="axesclip" id="clip6e2c23xy4"><rect x="102" y="260.83333333333337" width="983" height="42.166666666666664"/></clipPath><clipPath class="axesclip" id="clip6e2c23x2"><rect x="102" y="0" width="983" height="343"/></clipPath><clipPath class="axesclip" id="clip6e2c23x2y"><rect x="102" y="50" width="983" height="42.16666666666666"/></clipPath><clipPath class="axesclip" id="clip6e2c23x2y2"><rect x="102" y="120.27777777777779" width="983" height="42.16666666666666"/></clipPath><clipPath class="axesclip" id="clip6e2c23x2y3"><rect x="102" y="190.55555555555557" width="983" height="42.16666666666666"/></clipPath><clipPath class="axesclip" id="clip6e2c23x2y4"><rect x="102" y="260.83333333333337" width="983" height="42.166666666666664"/></clipPath><clipPath class="axesclip" id="clip6e2c23x3"><rect x="102" y="0" width="983" height="343"/></clipPath><clipPath class="axesclip" id="clip6e2c23x3y"><rect x="102" y="50" width="983" height="42.16666666666666"/></clipPath><clipPath class="axesclip" id="clip6e2c23x3y2"><rect x="102" y="120.27777777777779" width="983" height="42.16666666666666"/></clipPath><clipPath class="axesclip" id="clip6e2c23x3y3"><rect x="102" y="190.55555555555557" width="983" height="42.16666666666666"/></clipPath><clipPath class="axesclip" id="clip6e2c23x3y4"><rect x="102" y="260.83333333333337" width="983" height="42.166666666666664"/></clipPath><clipPath class="axesclip" id="clip6e2c23x4"><rect x="102" y="0" width="983" height="343"/></clipPath><clipPath class="axesclip" id="clip6e2c23x4y"><rect x="102" y="50" width="983" height="42.16666666666666"/></clipPath><clipPath class="axesclip" id="clip6e2c23x4y2"><rect x="102" y="120.27777777777779" width="983" height="42.16666666666666"/></clipPath><clipPath class="axesclip" id="clip6e2c23x4y3"><rect x="102" y="190.55555555555557" width="983" height="42.16666666666666"/></clipPath><clipPath class="axesclip" id="clip6e2c23x4y4"><rect x="102" y="260.83333333333337" width="983" height="42.166666666666664"/></clipPath></g><g class="gradients"/><g class="patterns"/></defs><g class="bglayer"/><g class="layer-below"><g class="imagelayer"/><g class="shapelayer"/></g><g class="cartesianlayer"><g class="subplot xy"><g class="layer-subplot"><g class="shapelayer"/><g class="imagelayer"/></g><g class="minor-gridlayer"><g class="x"/><g class="y"/></g><g class="gridlayer"><g class="x"><path class="xgrid crisp" transform="translate(301.51,0)" d="M0,50v42.16666666666666" style="stroke: rgb(0, 0, 0); stroke-opacity: 0.1; stroke-width: 1px;"/><path class="xgrid crisp" transform="translate(496.16,0)" d="M0,50v42.16666666666666" style="stroke: rgb(0, 0, 0); stroke-opacity: 0.1; stroke-width: 1px;"/><path class="xgrid crisp" transform="translate(690.81,0)" d="M0,50v42.16666666666666" style="stroke: rgb(0, 0, 0); stroke-opacity: 0.1; stroke-width: 1px;"/><path class="xgrid crisp" transform="translate(885.46,0)" d="M0,50v42.16666666666666" style="stroke: rgb(0, 0, 0); stroke-opacity: 0.1; stroke-width: 1px;"/><path class="xgrid crisp" transform="translate(1080.1100000000001,0)" d="M0,50v42.16666666666666" style="stroke: rgb(0, 0, 0); stroke-opacity: 0.1; stroke-width: 1px;"/></g><g class="y"><path class="ygrid crisp" transform="translate(0,71.08)" d="M102,0h983" style="stroke: rgb(0, 0, 0); stroke-opacity: 0.1; stroke-width: 1px;"/></g></g><g class="zerolinelayer"><path class="xzl zl crisp" transform="translate(106.87,0)" d="M0,50v42.16666666666666" style="stroke: rgb(0, 0, 0); stroke-opacity: 0.1; stroke-width: 2px;"/></g><g class="layer-between"><g class="shapelayer"/><g class="imagelayer"/></g><path class="xlines-below"/><path class="ylines-below"/><g class="overlines-below"/><g class="xaxislayer-below"/><g class="yaxislayer-below"/><g class="overaxes-below"/><g class="overplot"><g class="xy" transform="translate(102,50)" clip-path="url(#clip6e2c23xyplot)"><g class="violinlayer mlayer"><g class="trace violins" style="opacity: 0.5;"><path class="violin" d="M82.32,20.39Q85.66,20.05 87.32,19.82C88.99,19.59 90.65,19.32 92.31,19.02C93.98,18.72 95.65,18.37 97.31,18.04C98.98,17.7 100.63,17.33 102.3,17.01C103.96,16.69 105.63,16.38 107.3,16.12C108.96,15.87 110.62,15.65 112.29,15.48C113.95,15.31 115.62,15.22 117.29,15.1C118.95,14.98 120.62,14.92 122.28,14.76C123.95,14.6 125.62,14.45 127.28,14.16C128.95,13.87 130.62,13.48 132.27,13.01C133.95,12.53 135.61,11.91 137.27,11.28C138.94,10.65 140.59,9.88 142.26,9.23C143.92,8.58 145.58,7.87 147.26,7.38C148.91,6.9 150.58,6.47 152.25,6.32C153.91,6.17 155.6,6.21 157.25,6.45C158.93,6.7 160.6,7.22 162.24,7.81C163.93,8.42 165.59,9.28 167.24,10.1C168.92,10.94 170.56,11.92 172.23,12.8C173.89,13.68 175.55,14.6 177.23,15.39C178.88,16.17 180.54,16.91 182.22,17.53C183.87,18.13 185.54,18.64 187.22,19.06Q188.87,19.47 192.21,20.04L192.21,22.13Q188.87,22.7 187.22,23.11C185.54,23.53 183.87,24.04 182.22,24.64C180.54,25.25 178.88,25.99 177.23,26.77C175.55,27.56 173.89,28.49 172.23,29.37C170.56,30.25 168.92,31.22 167.24,32.06C165.59,32.88 163.93,33.74 162.24,34.35C160.6,34.94 158.93,35.46 157.25,35.71C155.6,35.95 153.91,35.99 152.25,35.84C150.58,35.69 148.91,35.26 147.26,34.78C145.58,34.29 143.92,33.59 142.26,32.94C140.59,32.29 138.94,31.51 137.27,30.88C135.61,30.25 133.95,29.63 132.27,29.15C130.62,28.68 128.95,28.3 127.28,28.01C125.62,27.72 123.95,27.56 122.28,27.4C120.62,27.24 118.95,27.19 117.29,27.07C115.62,26.95 113.95,26.85 112.29,26.68C110.62,26.51 108.96,26.3 107.3,26.05C105.63,25.79 103.96,25.47 102.3,25.15C100.63,24.83 98.97,24.46 97.31,24.13C95.64,23.79 93.98,23.44 92.31,23.14C90.65,22.84 88.99,22.58 87.32,22.35Q85.66,22.12 82.32,21.78Z" style="vector-effect: none; stroke-width: 2px; stroke: rgb(55, 126, 184); stroke-opacity: 1; fill: rgb(55, 126, 184); fill-opacity: 1;"/><path class="box" d="M151.63,24.77V17.39M131.43,24.77V17.39H157.47V24.77ZM131.43,21.08H113.31M157.47,21.08H161.22" style="vector-effect: non-scaling-stroke; stroke-width: 2px; stroke: rgb(55, 126, 184); stroke-opacity: 1; fill: rgb(55, 126, 184); fill-opacity: 1;"/><path class="mean" d="M144.45,24.77V17.39" style="fill: none; vector-effect: non-scaling-stroke; stroke-width: 2px; stroke-dasharray: 4px, 2px; stroke: rgb(55, 126, 184); stroke-opacity: 1;"/></g></g><g class="scatterlayer mlayer"><g class="trace scatter trace2283ad" style="stroke-miterlimit: 2; opacity: 1;"><g class="fills"/><g class="errorbars"/><g class="lines"/><g class="points"><path class="point" transform="translate(149.55,21.08)" d="M2,0A2,2 0 1,1 0,-2A2,2 0 0,1 2,0Z" style="opacity: 1; stroke-width: 0px; fill: rgb(0, 0, 0); fill-opacity: 1;"/></g><g class="text"/></g><g class="trace scatter traced5d99a" style="stroke-miterlimit: 2; opacity: 1;"><g class="fills"/><g class="errorbars"/><g class="lines"/><g class="points"><path class="point" transform="translate(113.31,21.08)" d="M2,0A2,2 0 1,1 0,-2A2,2 0 0,1 2,0Z" style="opacity: 1; stroke-width: 0px; fill: rgb(0, 0, 0); fill-opacity: 1;"/></g><g class="text"/></g><g class="trace scatter trace2ac27c" style="stroke-miterlimit: 2; opacity: 1;"><g class="fills"/><g class="errorbars"/><g class="lines"/><g class="points"><path class="point" transform="translate(153.72,21.08)" d="M2,0A2,2 0 1,1 0,-2A2,2 0 0,1 2,0Z" style="opacity: 1; stroke-width: 0px; fill: rgb(0, 0, 0); fill-opacity: 1;"/></g><g class="text"/></g><g class="trace scatter trace3e2b13" style="stroke-miterlimit: 2; opacity: 1;"><g class="fills"/><g class="errorbars"/><g class="lines"/><g class="points"><path class="point" transform="translate(161.22,21.08)" d="M2,0A2,2 0 1,1 0,-2A2,2 0 0,1 2,0Z" style="opacity: 1; stroke-width: 0px; fill: rgb(0, 0, 0); fill-opacity: 1;"/></g><g class="text"/></g></g></g></g><path class="xlines-above crisp" d="M0,0" style="fill: none;"/><path class="ylines-above crisp" d="M0,0" style="fill: none;"/><g class="overlines-above"/><g class="xaxislayer-above"><g class="xtick"><text text-anchor="middle" x="0" y="102.16666666666666" transform="translate(106.87,0)" style="font-family: 'Lucida Grande', 'Open Sans', verdana, arial, sans-serif; font-size: 9px; fill: rgb(0, 0, 0); fill-opacity: 0.5; white-space: pre; opacity: 1;">0%</text></g><g class="xtick"><text text-anchor="middle" x="0" y="102.16666666666666" style="font-family: 'Lucida Grande', 'Open Sans', verdana, arial, sans-serif; font-size: 9px; fill: rgb(0, 0, 0); fill-opacity: 0.5; white-space: pre; opacity: 1;" transform="translate(301.51,0)">20%</text></g><g class="xtick"><text text-anchor="middle" x="0" y="102.16666666666666" style="font-family: 'Lucida Grande', 'Open Sans', verdana, arial, sans-serif; font-size: 9px; fill: rgb(0, 0, 0); fill-opacity: 0.5; white-space: pre; opacity: 1;" transform="translate(496.16,0)">40%</text></g><g class="xtick"><text text-anchor="middle" x="0" y="102.16666666666666" style="font-family: 'Lucida Grande', 'Open Sans', verdana, arial, sans-serif; font-size: 9px; fill: rgb(0, 0, 0); fill-opacity: 0.5; white-space: pre; opacity: 1;" transform="translate(690.81,0)">60%</text></g><g class="xtick"><text text-anchor="middle" x="0" y="102.16666666666666" style="font-family: 'Lucida Grande', 'Open Sans', verdana, arial, sans-serif; font-size: 9px; fill: rgb(0, 0, 0); fill-opacity: 0.5; white-space: pre; opacity: 1;" transform="translate(885.46,0)">80%</text></g><g class="xtick"><text text-anchor="middle" x="0" y="102.16666666666666" style="font-family: 'Lucida Grande', 'Open Sans', verdana, arial, sans-serif; font-size: 9px; fill: rgb(0, 0, 0); fill-opacity: 0.5; white-space: pre; opacity: 1;" transform="translate(1080.1100000000001,0)">100%</text></g></g><g class="yaxislayer-above"><g class="ytick"><text text-anchor="end" x="101" y="4.199999999999999" transform="translate(0,71.08)translate(0,-7.800000000000001)" style="font-family: 'Lucida Grande', 'Open Sans', verdana, arial, sans-serif; font-size: 12px; fill: rgb(55, 126, 184); fill-opacity: 1; white-space: pre; opacity: 1;"><tspan class="line" dy="0em" x="101" y="4.199999999999999">Cutadapt  </tspan><tspan class="line" dy="1.3em" x="101" y="4.199999999999999">Trimmed bases  </tspan></text></g></g><g class="overaxes-above"/></g><g class="subplot x2y2"><g class="layer-subplot"><g class="shapelayer"/><g class="imagelayer"/></g><g class="minor-gridlayer"><g class="x2"/><g class="y2"/></g><g class="gridlayer"><g class="x2"><path class="x2grid crisp" transform="translate(301.51,0)" d="M0,120.27777777777779v42.16666666666666" style="stroke: rgb(0, 0, 0); stroke-opacity: 0.1; stroke-width: 1px;"/><path class="x2grid crisp" transform="translate(496.16,0)" d="M0,120.27777777777779v42.16666666666666" style="stroke: rgb(0, 0, 0); stroke-opacity: 0.1; stroke-width: 1px;"/><path class="x2grid crisp" transform="translate(690.81,0)" d="M0,120.27777777777779v42.16666666666666" style="stroke: rgb(0, 0, 0); stroke-opacity: 0.1; stroke-width: 1px;"/><path class="x2grid crisp" transform="translate(885.46,0)" d="M0,120.27777777777779v42.16666666666666" style="stroke: rgb(0, 0, 0); stroke-opacity: 0.1; stroke-width: 1px;"/><path class="x2grid crisp" transform="translate(1080.1100000000001,0)" d="M0,120.27777777777779v42.16666666666666" style="stroke: rgb(0, 0, 0); stroke-opacity: 0.1; stroke-width: 1px;"/></g><g class="y2"><path class="y2grid crisp" transform="translate(0,141.35777777777778)" d="M102,0h983" style="stroke: rgb(0, 0, 0); stroke-opacity: 0.1; stroke-width: 1px;"/></g></g><g class="zerolinelayer"><path class="x2zl zl crisp" transform="translate(106.87,0)" d="M0,120.27777777777779v42.16666666666666" style="stroke: rgb(0, 0, 0); stroke-opacity: 0.1; stroke-width: 2px;"/></g><g class="layer-between"><g class="shapelayer"/><g class="imagelayer"/></g><path class="xlines-below"/><path class="ylines-below"/><g class="overlines-below"/><g class="xaxislayer-below"/><g class="yaxislayer-below"/><g class="overaxes-below"/><g class="overplot"><g class="x2y2" transform="translate(102,120.27777777777779)" clip-path="url(#clip6e2c23x2y2plot)"><g class="violinlayer mlayer"><g class="trace violins" style="opacity: 0.5;"><path class="violin" d="M166.98,20.37Q187.17,20 197.27,19.73C207.37,19.46 217.46,19.14 227.56,18.75C237.66,18.36 247.75,17.9 257.85,17.4C267.95,16.9 278.04,16.32 288.14,15.74C298.24,15.16 308.33,14.53 318.43,13.92C328.53,13.31 338.62,12.68 348.72,12.09C358.82,11.5 368.91,10.92 379.01,10.39C389.11,9.86 399.2,9.36 409.3,8.91C419.4,8.46 429.49,8.05 439.59,7.7C449.69,7.36 459.78,7.06 469.88,6.84C479.98,6.62 490.07,6.47 500.17,6.38C510.27,6.29 520.36,6.28 530.46,6.32C540.56,6.36 550.65,6.48 560.75,6.63C570.84,6.78 580.94,6.98 591.03,7.2C601.13,7.42 611.22,7.67 621.32,7.95C631.42,8.23 641.51,8.53 651.61,8.88C661.71,9.23 671.8,9.61 681.9,10.04C692,10.47 702.09,10.96 712.19,11.47C722.29,11.99 732.38,12.56 742.48,13.13C752.58,13.7 762.67,14.31 772.77,14.89C782.87,15.47 792.96,16.06 803.06,16.59C813.16,17.12 823.25,17.62 833.35,18.06C843.45,18.5 853.54,18.88 863.64,19.21C873.74,19.54 883.83,19.8 893.93,20.02Q904.03,20.24 924.22,20.53L924.22,21.64Q904.03,21.93 893.93,22.15C883.83,22.37 873.74,22.63 863.64,22.96C853.54,23.29 843.45,23.67 833.35,24.11C823.25,24.55 813.16,25.05 803.06,25.58C792.96,26.11 782.87,26.7 772.77,27.28C762.67,27.86 752.58,28.47 742.48,29.04C732.38,29.61 722.29,30.19 712.19,30.7C702.09,31.21 692,31.69 681.9,32.12C671.8,32.55 661.71,32.93 651.61,33.28C641.51,33.63 631.42,33.94 621.32,34.22C611.22,34.5 601.13,34.75 591.03,34.97C580.94,35.19 570.84,35.4 560.75,35.54C550.65,35.69 540.56,35.8 530.46,35.84C520.36,35.88 510.27,35.87 500.17,35.79C490.07,35.71 479.98,35.55 469.88,35.33C459.78,35.11 449.69,34.8 439.59,34.46C429.49,34.11 419.4,33.71 409.3,33.26C399.2,32.81 389.11,32.31 379.01,31.78C368.91,31.25 358.82,30.67 348.72,30.08C338.62,29.49 328.53,28.86 318.43,28.25C308.33,27.64 298.24,27 288.14,26.42C278.04,25.84 267.95,25.27 257.85,24.77C247.75,24.27 237.66,23.81 227.56,23.42C217.46,23.03 207.37,22.71 197.27,22.44Q187.17,22.17 166.98,21.79Z" style="vector-effect: none; stroke-width: 2px; stroke: rgb(77, 175, 74); stroke-opacity: 1; fill: rgb(77, 175, 74); fill-opacity: 1;"/><path class="box" d="M515.62,24.77V17.39M438.54,24.77V17.39H648.76V24.77ZM438.54,21.08H354.07M648.76,21.08H737.13" style="vector-effect: non-scaling-stroke; stroke-width: 2px; stroke: rgb(77, 175, 74); stroke-opacity: 1; fill: rgb(77, 175, 74); fill-opacity: 1;"/><path class="mean" d="M537.13,24.77V17.39" style="fill: none; vector-effect: non-scaling-stroke; stroke-width: 2px; stroke-dasharray: 4px, 2px; stroke: rgb(77, 175, 74); stroke-opacity: 1;"/></g></g><g class="scatterlayer mlayer"><g class="trace scatter traceb15400" style="stroke-miterlimit: 2; opacity: 1;"><g class="fills"/><g class="errorbars"/><g class="lines"/><g class="points"><path class="point" transform="translate(494.6,21.08)" d="M2,0A2,2 0 1,1 0,-2A2,2 0 0,1 2,0Z" style="opacity: 1; stroke-width: 0px; fill: rgb(0, 0, 0); fill-opacity: 1;"/></g><g class="text"/></g><g class="trace scatter tracefb6df5" style="stroke-miterlimit: 2; opacity: 1;"><g class="fills"/><g class="errorbars"/><g class="lines"/><g class="points"><path class="point" transform="translate(737.13,21.08)" d="M2,0A2,2 0 1,1 0,-2A2,2 0 0,1 2,0Z" style="opacity: 1; stroke-width: 0px; fill: rgb(0, 0, 0); fill-opacity: 1;"/></g><g class="text"/></g><g class="trace scatter traceaa3567" style="stroke-miterlimit: 2; opacity: 1;"><g class="fills"/><g class="errorbars"/><g class="lines"/><g class="points"><path class="point" transform="translate(516.4,21.08)" d="M2,0A2,2 0 1,1 0,-2A2,2 0 0,1 2,0Z" style="opacity: 1; stroke-width: 0px; fill: rgb(0, 0, 0); fill-opacity: 1;"/></g><g class="text"/></g><g class="trace scatter trace02f10d" style="stroke-miterlimit: 2; opacity: 1;"><g class="fills"/><g class="errorbars"/><g class="lines"/><g class="points"><path class="point" transform="translate(662.78,21.08)" d="M2,0A2,2 0 1,1 0,-2A2,2 0 0,1 2,0Z" style="opacity: 1; stroke-width: 0px; fill: rgb(0, 0, 0); fill-opacity: 1;"/></g><g class="text"/></g><g class="trace scatter trace618b6e" style="stroke-miterlimit: 2; opacity: 1;"><g class="fills"/><g class="errorbars"/><g class="lines"/><g class="points"><path class="point" transform="translate(514.85,21.08)" d="M2,0A2,2 0 1,1 0,-2A2,2 0 0,1 2,0Z" style="opacity: 1; stroke-width: 0px; fill: rgb(0, 0, 0); fill-opacity: 1;"/></g><g class="text"/></g><g class="trace scatter trace4b978f" style="stroke-miterlimit: 2; opacity: 1;"><g class="fills"/><g class="errorbars"/><g class="lines"/><g class="points"><path class="point" transform="translate(634.75,21.08)" d="M2,0A2,2 0 1,1 0,-2A2,2 0 0,1 2,0Z" style="opacity: 1; stroke-width: 0px; fill: rgb(0, 0, 0); fill-opacity: 1;"/></g><g class="text"/></g><g class="trace scatter tracee24966" style="stroke-miterlimit: 2; opacity: 1;"><g class="fills"/><g class="errorbars"/><g class="lines"/><g class="points"><path class="point" transform="translate(382.48,21.08)" d="M2,0A2,2 0 1,1 0,-2A2,2 0 0,1 2,0Z" style="opacity: 1; stroke-width: 0px; fill: rgb(0, 0, 0); fill-opacity: 1;"/></g><g class="text"/></g><g class="trace scatter trace518777" style="stroke-miterlimit: 2; opacity: 1;"><g class="fills"/><g class="errorbars"/><g class="lines"/><g class="points"><path class="point" transform="translate(354.07,21.08)" d="M2,0A2,2 0 1,1 0,-2A2,2 0 0,1 2,0Z" style="opacity: 1; stroke-width: 0px; fill: rgb(0, 0, 0); fill-opacity: 1;"/></g><g class="text"/></g></g></g></g><path class="xlines-above crisp" d="M0,0" style="fill: none;"/><path class="ylines-above crisp" d="M0,0" style="fill: none;"/><g class="overlines-above"/><g class="xaxislayer-above"><g class="x2tick"><text text-anchor="middle" x="0" y="172.44444444444446" transform="translate(106.87,0)" style="font-family: 'Lucida Grande', 'Open Sans', verdana, arial, sans-serif; font-size: 9px; fill: rgb(0, 0, 0); fill-opacity: 0.5; white-space: pre; opacity: 1;">0%</text></g><g class="x2tick"><text text-anchor="middle" x="0" y="172.44444444444446" style="font-family: 'Lucida Grande', 'Open Sans', verdana, arial, sans-serif; font-size: 9px; fill: rgb(0, 0, 0); fill-opacity: 0.5; white-space: pre; opacity: 1;" transform="translate(301.51,0)">20%</text></g><g class="x2tick"><text text-anchor="middle" x="0" y="172.44444444444446" style="font-family: 'Lucida Grande', 'Open Sans', verdana, arial, sans-serif; font-size: 9px; fill: rgb(0, 0, 0); fill-opacity: 0.5; white-space: pre; opacity: 1;" transform="translate(496.16,0)">40%</text></g><g class="x2tick"><text text-anchor="middle" x="0" y="172.44444444444446" style="font-family: 'Lucida Grande', 'Open Sans', verdana, arial, sans-serif; font-size: 9px; fill: rgb(0, 0, 0); fill-opacity: 0.5; white-space: pre; opacity: 1;" transform="translate(690.81,0)">60%</text></g><g class="x2tick"><text text-anchor="middle" x="0" y="172.44444444444446" style="font-family: 'Lucida Grande', 'Open Sans', verdana, arial, sans-serif; font-size: 9px; fill: rgb(0, 0, 0); fill-opacity: 0.5; white-space: pre; opacity: 1;" transform="translate(885.46,0)">80%</text></g><g class="x2tick"><text text-anchor="middle" x="0" y="172.44444444444446" style="font-family: 'Lucida Grande', 'Open Sans', verdana, arial, sans-serif; font-size: 9px; fill: rgb(0, 0, 0); fill-opacity: 0.5; white-space: pre; opacity: 1;" transform="translate(1080.1100000000001,0)">100%</text></g></g><g class="yaxislayer-above"><g class="y2tick"><text text-anchor="end" x="101" y="4.199999999999999" transform="translate(0,141.35777777777778)translate(0,-7.800000000000001)" style="font-family: 'Lucida Grande', 'Open Sans', verdana, arial, sans-serif; font-size: 12px; fill: rgb(77, 175, 74); fill-opacity: 1; white-space: pre; opacity: 1;"><tspan class="line" dy="0em" x="101" y="4.199999999999999">FastQC  </tspan><tspan class="line" dy="1.3em" x="101" y="4.199999999999999">Dups  </tspan></text></g></g><g class="overaxes-above"/></g><g class="subplot x3y3"><g class="layer-subplot"><g class="shapelayer"/><g class="imagelayer"/></g><g class="minor-gridlayer"><g class="x3"/><g class="y3"/></g><g class="gridlayer"><g class="x3"><path class="x3grid crisp" transform="translate(301.51,0)" d="M0,190.55555555555557v42.16666666666666" style="stroke: rgb(0, 0, 0); stroke-opacity: 0.1; stroke-width: 1px;"/><path class="x3grid crisp" transform="translate(496.16,0)" d="M0,190.55555555555557v42.16666666666666" style="stroke: rgb(0, 0, 0); stroke-opacity: 0.1; stroke-width: 1px;"/><path class="x3grid crisp" transform="translate(690.81,0)" d="M0,190.55555555555557v42.16666666666666" style="stroke: rgb(0, 0, 0); stroke-opacity: 0.1; stroke-width: 1px;"/><path class="x3grid crisp" transform="translate(885.46,0)" d="M0,190.55555555555557v42.16666666666666" style="stroke: rgb(0, 0, 0); stroke-opacity: 0.1; stroke-width: 1px;"/><path class="x3grid crisp" transform="translate(1080.1100000000001,0)" d="M0,190.55555555555557v42.16666666666666" style="stroke: rgb(0, 0, 0); stroke-opacity: 0.1; stroke-width: 1px;"/></g><g class="y3"><path class="y3grid crisp" transform="translate(0,211.63555555555558)" d="M102,0h983" style="stroke: rgb(0, 0, 0); stroke-opacity: 0.1; stroke-width: 1px;"/></g></g><g class="zerolinelayer"><path class="x3zl zl crisp" transform="translate(106.87,0)" d="M0,190.55555555555557v42.16666666666666" style="stroke: rgb(0, 0, 0); stroke-opacity: 0.1; stroke-width: 2px;"/></g><g class="layer-between"><g class="shapelayer"/><g class="imagelayer"/></g><path class="xlines-below"/><path class="ylines-below"/><g class="overlines-below"/><g class="xaxislayer-below"/><g class="yaxislayer-below"/><g class="overaxes-below"/><g class="overplot"><g class="x3y3" transform="translate(102,190.55555555555557)" clip-path="url(#clip6e2c23x3y3plot)"><g class="violinlayer mlayer"><g class="trace violins" style="opacity: 0.5;"><path class="violin" d="M503.68,19.13Q504.48,18.16 504.84,17.58C505.25,16.93 505.62,16.17 505.99,15.4C506.39,14.56 506.77,13.63 507.15,12.73C507.54,11.82 507.91,10.86 508.31,9.99C508.68,9.19 509.03,8.34 509.46,7.71C509.81,7.19 510.19,6.65 510.62,6.43C510.97,6.25 511.4,6.22 511.77,6.32C512.18,6.43 512.56,6.85 512.93,7.18C513.33,7.53 513.69,8.02 514.09,8.37C514.46,8.69 514.83,9.08 515.24,9.21C515.61,9.33 516.03,9.33 516.4,9.21C516.81,9.08 517.18,8.69 517.55,8.37C517.95,8.02 518.31,7.53 518.71,7.18C519.08,6.86 519.45,6.44 519.86,6.33C520.23,6.23 520.66,6.25 521.02,6.43C521.45,6.64 521.83,7.19 522.18,7.71C522.61,8.34 522.96,9.19 523.33,9.99C523.73,10.86 524.1,11.82 524.49,12.73C524.87,13.63 525.24,14.56 525.64,15.4C526.01,16.17 526.39,16.93 526.8,17.58Q527.16,18.16 527.95,19.13L527.95,23.03Q527.16,24.01 526.8,24.59C526.39,25.24 526.01,26 525.64,26.77C525.24,27.6 524.87,28.54 524.49,29.43C524.1,30.34 523.73,31.31 523.33,32.18C522.96,32.98 522.61,33.82 522.18,34.45C521.83,34.97 521.45,35.52 521.02,35.74C520.66,35.92 520.23,35.94 519.86,35.84C519.45,35.73 519.08,35.32 518.71,34.99C518.31,34.64 517.95,34.14 517.55,33.79C517.18,33.47 516.81,33.09 516.4,32.96C516.03,32.84 515.61,32.84 515.24,32.96C514.83,33.09 514.46,33.47 514.09,33.79C513.69,34.14 513.33,34.64 512.93,34.99C512.56,35.32 512.18,35.73 511.77,35.84C511.4,35.94 510.97,35.92 510.62,35.74C510.19,35.52 509.81,34.97 509.46,34.45C509.03,33.82 508.68,32.98 508.31,32.18C507.91,31.31 507.54,30.34 507.15,29.43C506.77,28.53 506.39,27.61 505.99,26.77C505.62,26 505.25,25.24 504.84,24.59Q504.48,24.01 503.68,23.03Z" style="vector-effect: none; stroke-width: 2px; stroke: rgb(77, 175, 74); stroke-opacity: 1; fill: rgb(77, 175, 74); fill-opacity: 1;"/><path class="box" d="M515.82,24.77V17.39M510.95,24.77V17.39H520.69V24.77ZM510.95,21.08H510.95M520.69,21.08H520.69" style="vector-effect: non-scaling-stroke; stroke-width: 2px; stroke: rgb(77, 175, 74); stroke-opacity: 1; fill: rgb(77, 175, 74); fill-opacity: 1;"/><path class="mean" d="M515.82,24.77V17.39" style="fill: none; vector-effect: non-scaling-stroke; stroke-width: 2px; stroke-dasharray: 4px, 2px; stroke: rgb(77, 175, 74); stroke-opacity: 1;"/></g></g><g class="scatterlayer mlayer"><g class="trace scatter trace96ac58" style="stroke-miterlimit: 2; opacity: 1;"><g class="fills"/><g class="errorbars"/><g class="lines"/><g class="points"><path class="point" transform="translate(520.69,21.08)" d="M2,0A2,2 0 1,1 0,-2A2,2 0 0,1 2,0Z" style="opacity: 1; stroke-width: 0px; fill: rgb(0, 0, 0); fill-opacity: 1;"/></g><g class="text"/></g><g class="trace scatter trace558d29" style="stroke-miterlimit: 2; opacity: 1;"><g class="fills"/><g class="errorbars"/><g class="lines"/><g class="points"><path class="point" transform="translate(520.69,21.08)" d="M2,0A2,2 0 1,1 0,-2A2,2 0 0,1 2,0Z" style="opacity: 1; stroke-width: 0px; fill: rgb(0, 0, 0); fill-opacity: 1;"/></g><g class="text"/></g><g class="trace scatter trace10aa55" style="stroke-miterlimit: 2; opacity: 1;"><g class="fills"/><g class="errorbars"/><g class="lines"/><g class="points"><path class="point" transform="translate(510.95,21.08)" d="M2,0A2,2 0 1,1 0,-2A2,2 0 0,1 2,0Z" style="opacity: 1; stroke-width: 0px; fill: rgb(0, 0, 0); fill-opacity: 1;"/></g><g class="text"/></g><g class="trace scatter tracef4f9f0" style="stroke-miterlimit: 2; opacity: 1;"><g class="fills"/><g class="errorbars"/><g class="lines"/><g class="points"><path class="point" transform="translate(520.69,21.08)" d="M2,0A2,2 0 1,1 0,-2A2,2 0 0,1 2,0Z" style="opacity: 1; stroke-width: 0px; fill: rgb(0, 0, 0); fill-opacity: 1;"/></g><g class="text"/></g><g class="trace scatter trace52aef1" style="stroke-miterlimit: 2; opacity: 1;"><g class="fills"/><g class="errorbars"/><g class="lines"/><g class="points"><path class="point" transform="translate(520.69,21.08)" d="M2,0A2,2 0 1,1 0,-2A2,2 0 0,1 2,0Z" style="opacity: 1; stroke-width: 0px; fill: rgb(0, 0, 0); fill-opacity: 1;"/></g><g class="text"/></g><g class="trace scatter tracefd53a8" style="stroke-miterlimit: 2; opacity: 1;"><g class="fills"/><g class="errorbars"/><g class="lines"/><g class="points"><path class="point" transform="translate(510.95,21.08)" d="M2,0A2,2 0 1,1 0,-2A2,2 0 0,1 2,0Z" style="opacity: 1; stroke-width: 0px; fill: rgb(0, 0, 0); fill-opacity: 1;"/></g><g class="text"/></g><g class="trace scatter tracef0503c" style="stroke-miterlimit: 2; opacity: 1;"><g class="fills"/><g class="errorbars"/><g class="lines"/><g class="points"><path class="point" transform="translate(510.95,21.08)" d="M2,0A2,2 0 1,1 0,-2A2,2 0 0,1 2,0Z" style="opacity: 1; stroke-width: 0px; fill: rgb(0, 0, 0); fill-opacity: 1;"/></g><g class="text"/></g><g class="trace scatter trace5a0a65" style="stroke-miterlimit: 2; opacity: 1;"><g class="fills"/><g class="errorbars"/><g class="lines"/><g class="points"><path class="point" transform="translate(510.95,21.08)" d="M2,0A2,2 0 1,1 0,-2A2,2 0 0,1 2,0Z" style="opacity: 1; stroke-width: 0px; fill: rgb(0, 0, 0); fill-opacity: 1;"/></g><g class="text"/></g></g></g></g><path class="xlines-above crisp" d="M0,0" style="fill: none;"/><path class="ylines-above crisp" d="M0,0" style="fill: none;"/><g class="overlines-above"/><g class="xaxislayer-above"><g class="x3tick"><text text-anchor="middle" x="0" y="242.72222222222223" transform="translate(106.87,0)" style="font-family: 'Lucida Grande', 'Open Sans', verdana, arial, sans-serif; font-size: 9px; fill: rgb(0, 0, 0); fill-opacity: 0.5; white-space: pre; opacity: 1;">0%</text></g><g class="x3tick"><text text-anchor="middle" x="0" y="242.72222222222223" style="font-family: 'Lucida Grande', 'Open Sans', verdana, arial, sans-serif; font-size: 9px; fill: rgb(0, 0, 0); fill-opacity: 0.5; white-space: pre; opacity: 1;" transform="translate(301.51,0)">20%</text></g><g class="x3tick"><text text-anchor="middle" x="0" y="242.72222222222223" style="font-family: 'Lucida Grande', 'Open Sans', verdana, arial, sans-serif; font-size: 9px; fill: rgb(0, 0, 0); fill-opacity: 0.5; white-space: pre; opacity: 1;" transform="translate(496.16,0)">40%</text></g><g class="x3tick"><text text-anchor="middle" x="0" y="242.72222222222223" style="font-family: 'Lucida Grande', 'Open Sans', verdana, arial, sans-serif; font-size: 9px; fill: rgb(0, 0, 0); fill-opacity: 0.5; white-space: pre; opacity: 1;" transform="translate(690.81,0)">60%</text></g><g class="x3tick"><text text-anchor="middle" x="0" y="242.72222222222223" style="font-family: 'Lucida Grande', 'Open Sans', verdana, arial, sans-serif; font-size: 9px; fill: rgb(0, 0, 0); fill-opacity: 0.5; white-space: pre; opacity: 1;" transform="translate(885.46,0)">80%</text></g><g class="x3tick"><text text-anchor="middle" x="0" y="242.72222222222223" style="font-family: 'Lucida Grande', 'Open Sans', verdana, arial, sans-serif; font-size: 9px; fill: rgb(0, 0, 0); fill-opacity: 0.5; white-space: pre; opacity: 1;" transform="translate(1080.1100000000001,0)">100%</text></g></g><g class="yaxislayer-above"><g class="y3tick"><text text-anchor="end" x="101" y="4.199999999999999" transform="translate(0,211.63555555555558)translate(0,-7.800000000000001)" style="font-family: 'Lucida Grande', 'Open Sans', verdana, arial, sans-serif; font-size: 12px; fill: rgb(77, 175, 74); fill-opacity: 1; white-space: pre; opacity: 1;"><tspan class="line" dy="0em" x="101" y="4.199999999999999">FastQC  </tspan><tspan class="line" dy="1.3em" x="101" y="4.199999999999999">GC  </tspan></text></g></g><g class="overaxes-above"/></g><g class="subplot x4y4"><g class="layer-subplot"><g class="shapelayer"/><g class="imagelayer"/></g><g class="minor-gridlayer"><g class="x4"/><g class="y4"/></g><g class="gridlayer"><g class="x4"><path class="x4grid crisp" transform="translate(301.51,0)" d="M0,260.83333333333337v42.166666666666664" style="stroke: rgb(0, 0, 0); stroke-opacity: 0.1; stroke-width: 1px;"/><path class="x4grid crisp" transform="translate(496.16,0)" d="M0,260.83333333333337v42.166666666666664" style="stroke: rgb(0, 0, 0); stroke-opacity: 0.1; stroke-width: 1px;"/><path class="x4grid crisp" transform="translate(690.81,0)" d="M0,260.83333333333337v42.166666666666664" style="stroke: rgb(0, 0, 0); stroke-opacity: 0.1; stroke-width: 1px;"/><path class="x4grid crisp" transform="translate(885.46,0)" d="M0,260.83333333333337v42.166666666666664" style="stroke: rgb(0, 0, 0); stroke-opacity: 0.1; stroke-width: 1px;"/><path class="x4grid crisp" transform="translate(1080.1100000000001,0)" d="M0,260.83333333333337v42.166666666666664" style="stroke: rgb(0, 0, 0); stroke-opacity: 0.1; stroke-width: 1px;"/></g><g class="y4"><path class="y4grid crisp" transform="translate(0,281.91333333333336)" d="M102,0h983" style="stroke: rgb(0, 0, 0); stroke-opacity: 0.1; stroke-width: 1px;"/></g></g><g class="zerolinelayer"><path class="x4zl zl crisp" transform="translate(106.87,0)" d="M0,260.83333333333337v42.166666666666664" style="stroke: rgb(0, 0, 0); stroke-opacity: 0.1; stroke-width: 2px;"/></g><g class="layer-between"><g class="shapelayer"/><g class="imagelayer"/></g><path class="xlines-below"/><path class="ylines-below"/><g class="overlines-below"/><g class="xaxislayer-below"/><g class="yaxislayer-below"/><g class="overaxes-below"/><g class="overplot"><g class="x4y4" transform="translate(102,260.83333333333337)" clip-path="url(#clip6e2c23x4y4plot)"><g class="violinlayer mlayer"><g class="trace violins" style="opacity: 0.5;"><path class="violin" d="M978.11,6.33L978.11,35.84Z" style="vector-effect: none; stroke-width: 2px; stroke: rgb(77, 175, 74); stroke-opacity: 1; fill: rgb(77, 175, 74); fill-opacity: 1;"/><path class="box" d="M978.11,24.77V17.39M978.11,24.77V17.39H978.11V24.77ZM978.11,21.08H978.11M978.11,21.08H978.11" style="vector-effect: non-scaling-stroke; stroke-width: 2px; stroke: rgb(77, 175, 74); stroke-opacity: 1; fill: rgb(77, 175, 74); fill-opacity: 1;"/><path class="mean" d="M978.11,24.77V17.39" style="fill: none; vector-effect: non-scaling-stroke; stroke-width: 2px; stroke-dasharray: 4px, 2px; stroke: rgb(77, 175, 74); stroke-opacity: 1;"/></g></g><g class="scatterlayer mlayer"><g class="trace scatter trace35d8bd" style="stroke-miterlimit: 2; opacity: 1;"><g class="fills"/><g class="errorbars"/><g class="lines"/><g class="points"><path class="point" transform="translate(978.11,21.08)" d="M2,0A2,2 0 1,1 0,-2A2,2 0 0,1 2,0Z" style="opacity: 1; stroke-width: 0px; fill: rgb(0, 0, 0); fill-opacity: 1;"/></g><g class="text"/></g><g class="trace scatter trace848fa5" style="stroke-miterlimit: 2; opacity: 1;"><g class="fills"/><g class="errorbars"/><g class="lines"/><g class="points"><path class="point" transform="translate(978.11,21.08)" d="M2,0A2,2 0 1,1 0,-2A2,2 0 0,1 2,0Z" style="opacity: 1; stroke-width: 0px; fill: rgb(0, 0, 0); fill-opacity: 1;"/></g><g class="text"/></g><g class="trace scatter trace76a1a5" style="stroke-miterlimit: 2; opacity: 1;"><g class="fills"/><g class="errorbars"/><g class="lines"/><g class="points"><path class="point" transform="translate(978.11,21.08)" d="M2,0A2,2 0 1,1 0,-2A2,2 0 0,1 2,0Z" style="opacity: 1; stroke-width: 0px; fill: rgb(0, 0, 0); fill-opacity: 1;"/></g><g class="text"/></g><g class="trace scatter trace163c91" style="stroke-miterlimit: 2; opacity: 1;"><g class="fills"/><g class="errorbars"/><g class="lines"/><g class="points"><path class="point" transform="translate(978.11,21.08)" d="M2,0A2,2 0 1,1 0,-2A2,2 0 0,1 2,0Z" style="opacity: 1; stroke-width: 0px; fill: rgb(0, 0, 0); fill-opacity: 1;"/></g><g class="text"/></g><g class="trace scatter trace1a1a0d" style="stroke-miterlimit: 2; opacity: 1;"><g class="fills"/><g class="errorbars"/><g class="lines"/><g class="points"><path class="point" transform="translate(978.11,21.08)" d="M2,0A2,2 0 1,1 0,-2A2,2 0 0,1 2,0Z" style="opacity: 1; stroke-width: 0px; fill: rgb(0, 0, 0); fill-opacity: 1;"/></g><g class="text"/></g><g class="trace scatter trace924d15" style="stroke-miterlimit: 2; opacity: 1;"><g class="fills"/><g class="errorbars"/><g class="lines"/><g class="points"><path class="point" transform="translate(978.11,21.08)" d="M2,0A2,2 0 1,1 0,-2A2,2 0 0,1 2,0Z" style="opacity: 1; stroke-width: 0px; fill: rgb(0, 0, 0); fill-opacity: 1;"/></g><g class="text"/></g><g class="trace scatter tracec46e4a" style="stroke-miterlimit: 2; opacity: 1;"><g class="fills"/><g class="errorbars"/><g class="lines"/><g class="points"><path class="point" transform="translate(978.11,21.08)" d="M2,0A2,2 0 1,1 0,-2A2,2 0 0,1 2,0Z" style="opacity: 1; stroke-width: 0px; fill: rgb(0, 0, 0); fill-opacity: 1;"/></g><g class="text"/></g><g class="trace scatter traced2c479" style="stroke-miterlimit: 2; opacity: 1;"><g class="fills"/><g class="errorbars"/><g class="lines"/><g class="points"><path class="point" transform="translate(978.11,21.08)" d="M2,0A2,2 0 1,1 0,-2A2,2 0 0,1 2,0Z" style="opacity: 1; stroke-width: 0px; fill: rgb(0, 0, 0); fill-opacity: 1;"/></g><g class="text"/></g></g></g></g><path class="xlines-above crisp" d="M0,0" style="fill: none;"/><path class="ylines-above crisp" d="M0,0" style="fill: none;"/><g class="overlines-above"/><g class="xaxislayer-above"><g class="x4tick"><text text-anchor="middle" x="0" y="313.00000000000006" transform="translate(106.87,0)" style="font-family: 'Lucida Grande', 'Open Sans', verdana, arial, sans-serif; font-size: 9px; fill: rgb(0, 0, 0); fill-opacity: 0.5; white-space: pre; opacity: 1;">0M</text></g><g class="x4tick"><text text-anchor="middle" x="0" y="313.00000000000006" style="font-family: 'Lucida Grande', 'Open Sans', verdana, arial, sans-serif; font-size: 9px; fill: rgb(0, 0, 0); fill-opacity: 0.5; white-space: pre; opacity: 1;" transform="translate(301.51,0)">0.0005M</text></g><g class="x4tick"><text text-anchor="middle" x="0" y="313.00000000000006" style="font-family: 'Lucida Grande', 'Open Sans', verdana, arial, sans-serif; font-size: 9px; fill: rgb(0, 0, 0); fill-opacity: 0.5; white-space: pre; opacity: 1;" transform="translate(496.16,0)">0.001M</text></g><g class="x4tick"><text text-anchor="middle" x="0" y="313.00000000000006" style="font-family: 'Lucida Grande', 'Open Sans', verdana, arial, sans-serif; font-size: 9px; fill: rgb(0, 0, 0); fill-opacity: 0.5; white-space: pre; opacity: 1;" transform="translate(690.81,0)">0.0015M</text></g><g class="x4tick"><text text-anchor="middle" x="0" y="313.00000000000006" style="font-family: 'Lucida Grande', 'Open Sans', verdana, arial, sans-serif; font-size: 9px; fill: rgb(0, 0, 0); fill-opacity: 0.5; white-space: pre; opacity: 1;" transform="translate(885.46,0)">0.002M</text></g><g class="x4tick"><text text-anchor="middle" x="0" y="313.00000000000006" style="font-family: 'Lucida Grande', 'Open Sans', verdana, arial, sans-serif; font-size: 9px; fill: rgb(0, 0, 0); fill-opacity: 0.5; white-space: pre; opacity: 1;" transform="translate(1080.1100000000001,0)">0.0025M</text></g></g><g class="yaxislayer-above"><g class="y4tick"><text text-anchor="end" x="101" y="4.199999999999999" transform="translate(0,281.91333333333336)translate(0,-7.800000000000001)" style="font-family: 'Lucida Grande', 'Open Sans', verdana, arial, sans-serif; font-size: 12px; fill: rgb(77, 175, 74); fill-opacity: 1; white-space: pre; opacity: 1;"><tspan class="line" dy="0em" x="101" y="4.199999999999999">FastQC  </tspan><tspan class="line" dy="1.3em" x="101" y="4.199999999999999">Seqs  </tspan></text></g></g><g class="overaxes-above"/></g></g><g class="polarlayer"/><g class="smithlayer"/><g class="ternarylayer"/><g class="geolayer"/><g class="funnelarealayer"/><g class="pielayer"/><g class="iciclelayer"/><g class="treemaplayer"/><g class="sunburstlayer"/><g class="glimages"/><defs id="topdefs-6e2c23"><g class="clips"/></defs><g class="layer-above"><g class="imagelayer"/><g class="shapelayer"/></g><g class="infolayer"><g class="g-gtitle"><text class="gtitle" x="550" y="25" text-anchor="middle" dy="0em" style="opacity: 1; font-family: 'Lucida Grande', 'Open Sans', verdana, arial, sans-serif; font-size: 20px; fill: rgb(42, 63, 95); fill-opacity: 1; white-space: pre;"><tspan class="line" dy="0em" x="550" y="25">General Statistics</tspan><tspan class="line" dy="1.3em" x="550" y="25">​<tspan style="font-size:70%" dy="-0.6em">12 samples</tspan><tspan dy="0.42em">​</tspan></tspan></text></g><g class="g-xtitle"/><g class="g-x2title"/><g class="g-x3title"/><g class="g-x4title"/><g class="g-ytitle"/><g class="g-y2title"/><g class="g-y3title"/><g class="g-y4title"/></g></svg>